<svg width="92" height="50" viewBox="0 0 92 50" fill="none" xmlns="http://www.w3.org/2000/svg">
<path d="M26.7637 28.2599L33.5189 27.6205M38.4728 26.9412L33.5189 27.6205M33.5189 27.6205V32.8235" stroke="white" stroke-width="2"/>
<path d="M41.3999 20.3235V22.1618M41.3999 22.1618V26.3088C41.3999 26.8611 41.8476 27.3088 42.3999 27.3088H44.9999C45.5522 27.3088 45.9999 26.8611 45.9999 26.3088V21.8C45.9999 21.0927 45.2856 20.609 44.6288 20.8714L41.3999 22.1618Z" stroke="white" stroke-width="2"/>
<path d="M47.6726 24.3676H50.5999M50.5999 24.3676V18.1176M50.5999 24.3676V30.9853" stroke="white" stroke-width="2"/>
<path d="M54.3638 17.75V24.7353V32.0882" stroke="white" stroke-width="2"/>
<path d="M58.8591 19.9282H64.1607C65.0435 19.9282 65.7591 20.6438 65.7591 21.5267V21.5267C65.7591 22.4095 65.0435 23.1251 64.1607 23.1251H60.8591C59.7546 23.1251 58.8591 24.0206 58.8591 25.1251V25.2811C58.8591 26.3857 59.7546 27.2811 60.8591 27.2811H65.7591" stroke="white" stroke-width="2"/>
<path d="M28.8545 18.1177V22.1618M36.7999 17.3824V20.5074M36.7999 20.5074V20.9083C36.7999 22.8913 35.3376 24.5707 33.3735 24.8433L32.1319 25.0157C30.3997 25.2561 28.8545 23.9106 28.8545 22.1618V22.1618M36.7999 20.5074L28.8545 22.1618" stroke="white" stroke-width="2"/>
<path d="M71.0908 22.8694H75.2727" stroke="white" stroke-width="2"/>
<path d="M68.5818 28.7517V19.2618C68.5818 19.0157 68.6541 18.7751 68.7898 18.5699V18.5699C69.2858 17.8197 70.3868 17.8197 70.8828 18.5699V18.5699C71.0185 18.7751 71.0909 19.0157 71.0909 19.2618V28.7517" stroke="white" stroke-width="1.5"/>
<path d="M69.1721 28.3651H69.8825H70.1676C72.3593 28.3651 74.1359 30.1417 74.1359 32.3333C74.1359 34.5249 72.3593 36.3016 70.1676 36.3016H69.8825H69.1721C66.9805 36.3016 65.2039 34.5249 65.2039 32.3333C65.2039 30.1417 66.9805 28.3651 69.1721 28.3651Z" stroke="white" stroke-width="1.5"/>
<path d="M71.0342 30.164L71.1883 30.2872C72.3533 31.2183 72.2754 33.0137 71.0342 33.8404V33.8404" stroke="white"/>
<path d="M69.83 33.8404H69.729C69.5259 33.8404 69.3613 34.005 69.3613 34.2081C69.3613 34.4111 69.5259 34.5757 69.729 34.5757H69.83C70.0331 34.5757 70.1977 34.4111 70.1977 34.2081C70.1977 34.005 70.0331 33.8404 69.83 33.8404Z" stroke="white"/>
<path d="M27.0447 36.9661C26.9247 36.9781 26.8287 36.9601 26.7567 36.9121C26.6847 36.8641 26.6457 36.7951 26.6397 36.7051C26.6277 36.5191 26.7567 36.3961 27.0267 36.3361C27.4167 36.2521 27.8307 36.1951 28.2687 36.1651C28.7067 36.1291 29.1147 36.1261 29.4927 36.1561C29.6727 36.1681 29.8077 36.2131 29.8977 36.2911C29.9877 36.3691 30.0267 36.4681 30.0147 36.5881C30.0027 36.7021 29.9487 36.7831 29.8527 36.8311C29.7627 36.8731 29.6367 36.8941 29.4747 36.8941C29.3367 36.8941 29.1927 36.8941 29.0427 36.8941C28.8987 36.8881 28.7577 36.8851 28.6197 36.8851C28.4817 36.8851 28.3497 36.8881 28.2237 36.8941C28.0977 36.9001 27.9897 36.9091 27.8997 36.9211C27.8337 37.0471 27.8007 37.1791 27.8007 37.3171C27.8067 37.4551 27.8457 37.5691 27.9177 37.6591C27.9717 37.7251 28.0467 37.7821 28.1427 37.8301C28.2447 37.8781 28.3557 37.9081 28.4757 37.9201C28.6377 37.9321 28.7937 37.9231 28.9437 37.8931C29.0997 37.8631 29.2437 37.8271 29.3757 37.7851C29.8077 37.6531 30.0717 37.7101 30.1677 37.9561C30.2277 38.1061 30.2067 38.2381 30.1047 38.3521C30.0027 38.4661 29.8107 38.5561 29.5287 38.6221C29.3847 38.6521 29.2467 38.6761 29.1147 38.6941C28.9827 38.7061 28.8657 38.7121 28.7637 38.7121C28.5357 38.7121 28.3347 38.7001 28.1607 38.6761C27.9867 38.6461 27.8307 38.6071 27.6927 38.5591C27.5307 38.4991 27.3927 38.4151 27.2787 38.3071C27.1707 38.1991 27.0897 38.0761 27.0357 37.9381C26.9817 37.7941 26.9547 37.6411 26.9547 37.4791C26.9607 37.3111 26.9907 37.1401 27.0447 36.9661ZM27.8007 41.4301C27.7167 41.4481 27.6387 41.4481 27.5667 41.4301C27.4947 41.4121 27.4437 41.3701 27.4137 41.3041C27.3897 41.2501 27.3897 41.1871 27.4137 41.1151C27.4437 41.0371 27.5127 40.9741 27.6207 40.9261C27.7947 40.8541 27.9927 40.8061 28.2147 40.7821C28.4367 40.7521 28.6467 40.7371 28.8447 40.7371C29.1987 40.7371 29.4717 40.8151 29.6637 40.9711C29.8617 41.1211 29.9607 41.3221 29.9607 41.5741C29.9607 41.8261 29.8857 42.0151 29.7357 42.1411C29.5857 42.2671 29.3967 42.3301 29.1687 42.3301C29.0307 42.3301 28.8717 42.3301 28.6917 42.3301C28.5117 42.3361 28.3497 42.3451 28.2057 42.3571C28.1937 42.4291 28.1877 42.4861 28.1877 42.5281C28.1937 42.5761 28.2117 42.6271 28.2417 42.6811C28.2777 42.7531 28.3377 42.8101 28.4217 42.8521C28.5117 42.8941 28.6167 42.9091 28.7367 42.8971C28.8387 42.8851 28.9347 42.8611 29.0247 42.8251C29.1207 42.7951 29.2317 42.7471 29.3577 42.6811C29.4417 42.6391 29.5377 42.6301 29.6457 42.6541C29.7537 42.6781 29.8317 42.7411 29.8797 42.8431C29.9277 42.9451 29.9307 43.0441 29.8887 43.1401C29.8467 43.2361 29.7837 43.3171 29.6997 43.3831C29.5797 43.4791 29.4297 43.5451 29.2497 43.5811C29.0697 43.6231 28.8957 43.6381 28.7277 43.6261C28.4457 43.6081 28.2117 43.5331 28.0257 43.4011C27.8457 43.2751 27.7257 43.0921 27.6657 42.8521C27.6417 42.7681 27.6297 42.6871 27.6297 42.6091C27.6297 42.5371 27.6357 42.4591 27.6477 42.3751C27.4857 42.3631 27.4047 42.2821 27.4047 42.1321C27.4047 42.0661 27.4257 42.0031 27.4677 41.9431C27.5157 41.8831 27.5817 41.8471 27.6657 41.8351C27.7437 41.8231 27.8397 41.8141 27.9537 41.8081C28.0737 41.7961 28.1937 41.7871 28.3137 41.7811C28.4397 41.7751 28.5627 41.7721 28.6827 41.7721C28.8027 41.7661 28.9047 41.7631 28.9887 41.7631C29.1447 41.7631 29.2287 41.6971 29.2407 41.5651C29.2467 41.5171 29.2287 41.4721 29.1867 41.4301C29.1447 41.3821 29.0817 41.3521 28.9977 41.3401C28.8057 41.3101 28.6077 41.3071 28.4037 41.3311C28.2057 41.3491 28.0047 41.3821 27.8007 41.4301ZM30.0057 39.5221C30.1917 39.5101 30.3447 39.5281 30.4647 39.5761C30.5907 39.6241 30.6567 39.7231 30.6627 39.8731C30.6687 39.9991 30.6357 40.0891 30.5637 40.1431C30.4917 40.1911 30.3507 40.2301 30.1407 40.2601C29.5947 40.3081 29.0727 40.3531 28.5747 40.3951C28.0767 40.4371 27.5787 40.4791 27.0807 40.5211C26.9067 40.5391 26.7717 40.5121 26.6757 40.4401C26.5857 40.3621 26.5347 40.2751 26.5227 40.1791C26.5107 40.0831 26.5377 39.9961 26.6037 39.9181C26.6757 39.8341 26.7807 39.7831 26.9187 39.7651C27.0567 39.7471 27.2367 39.7291 27.4587 39.7111C27.6807 39.6931 27.9267 39.6721 28.1967 39.6481C28.1967 39.5581 28.1967 39.4681 28.1967 39.3781C28.2027 39.2881 28.2087 39.2161 28.2147 39.1621C28.2207 39.0541 28.2597 38.9701 28.3317 38.9101C28.4037 38.8501 28.4907 38.8201 28.5927 38.8201C28.7127 38.8201 28.8117 38.8531 28.8897 38.9191C28.9737 38.9791 29.0127 39.0781 29.0067 39.2161C29.0007 39.2821 28.9977 39.3451 28.9977 39.4051C28.9977 39.4651 28.9977 39.5281 28.9977 39.5941C29.1777 39.5821 29.3517 39.5701 29.5197 39.5581C29.6937 39.5461 29.8557 39.5341 30.0057 39.5221ZM36.9128 38.9371C36.9608 38.9551 37.0058 38.9761 37.0478 39.0001C37.0958 39.0181 37.1408 39.0421 37.1828 39.0721C37.2428 39.1201 37.2818 39.1771 37.2998 39.2431C37.3178 39.3091 37.3178 39.3691 37.2998 39.4231C37.2758 39.4891 37.2398 39.5371 37.1918 39.5671C37.1438 39.5971 37.0928 39.6121 37.0388 39.6121C36.9728 39.6121 36.9098 39.6001 36.8498 39.5761C36.7898 39.5521 36.7298 39.5341 36.6698 39.5221C36.5138 39.4801 36.3728 39.4681 36.2468 39.4861C36.1208 39.4981 35.9888 39.5371 35.8508 39.6031C35.8568 39.7471 35.8598 39.9061 35.8598 40.0801C35.8598 40.2541 35.8568 40.4311 35.8508 40.6111C35.8448 40.7911 35.8358 40.9651 35.8238 41.1331C35.8118 41.3011 35.7968 41.4511 35.7788 41.5831C35.7548 41.7391 35.6828 41.8621 35.5628 41.9521C35.4428 42.0361 35.2778 42.0751 35.0678 42.0691C34.9118 42.0631 34.7768 42.0181 34.6628 41.9341C34.5548 41.8501 34.5068 41.7241 34.5188 41.5561C34.5368 41.3641 34.5548 41.1571 34.5728 40.9351C34.5908 40.7131 34.6058 40.4941 34.6178 40.2781C34.6298 40.0621 34.6388 39.8581 34.6448 39.6661C34.6568 39.4681 34.6628 39.2971 34.6628 39.1531C34.6628 38.8591 34.6598 38.5591 34.6538 38.2531C34.6478 37.9471 34.6208 37.6591 34.5728 37.3891C34.5668 37.3531 34.5578 37.3081 34.5458 37.2541C34.5398 37.1941 34.5398 37.1401 34.5458 37.0921C34.5578 37.0141 34.5818 36.9721 34.6178 36.9661C34.6598 36.9541 34.7108 36.9541 34.7708 36.9661C34.8788 36.9841 34.9658 37.0171 35.0318 37.0651C35.1038 37.1131 35.1728 37.1701 35.2388 37.2361C35.3948 37.4101 35.5178 37.6441 35.6078 37.9381C35.6978 38.2261 35.7638 38.5681 35.8058 38.9641C35.9858 38.8801 36.1718 38.8381 36.3638 38.8381C36.5558 38.8381 36.7388 38.8711 36.9128 38.9371ZM31.0898 39.7921C31.0958 39.5641 31.1348 39.3631 31.2068 39.1891C31.2788 39.0151 31.3718 38.8711 31.4858 38.7571C31.6058 38.6431 31.7378 38.5591 31.8818 38.5051C32.0258 38.4451 32.1758 38.4151 32.3318 38.4151C32.5238 38.4151 32.6978 38.4571 32.8538 38.5411C33.0098 38.6191 33.1388 38.7271 33.2408 38.8651C33.3488 39.0031 33.4268 39.1651 33.4748 39.3511C33.5288 39.5311 33.5468 39.7261 33.5288 39.9361C33.4868 40.3561 33.3488 40.6771 33.1148 40.8991C32.8808 41.1151 32.5928 41.2171 32.2508 41.2051C31.8788 41.1931 31.5878 41.0611 31.3778 40.8091C31.1738 40.5571 31.0778 40.2181 31.0898 39.7921ZM31.8008 39.8551C31.8068 40.0291 31.8488 40.1731 31.9268 40.2871C32.0048 40.4011 32.1098 40.4611 32.2418 40.4671C32.4218 40.4731 32.5598 40.4191 32.6558 40.3051C32.7578 40.1911 32.8118 40.0411 32.8178 39.8551C32.8238 39.6331 32.7758 39.4651 32.6738 39.3511C32.5778 39.2371 32.4428 39.1861 32.2688 39.1981C32.1008 39.2101 31.9808 39.2821 31.9088 39.4141C31.8368 39.5401 31.8008 39.6871 31.8008 39.8551ZM42.801 40.8361C42.801 40.9861 42.795 41.1361 42.783 41.2861C42.771 41.4301 42.75 41.5771 42.72 41.7271C42.696 41.8531 42.648 41.9551 42.576 42.0331C42.51 42.1051 42.429 42.1621 42.333 42.2041C42.243 42.2401 42.144 42.2641 42.036 42.2761C41.934 42.2821 41.832 42.2761 41.73 42.2581C41.508 42.2101 41.376 42.1111 41.334 41.9611C41.298 41.8051 41.295 41.6311 41.325 41.4391C41.385 41.1031 41.436 40.7461 41.478 40.3681C41.52 39.9901 41.547 39.6211 41.559 39.2611C41.571 38.8711 41.562 38.5111 41.532 38.1811C41.508 37.8451 41.451 37.5121 41.361 37.1821C41.349 37.1461 41.337 37.1071 41.325 37.0651C41.313 37.0231 41.304 36.9811 41.298 36.9391C41.298 36.8971 41.304 36.8611 41.316 36.8311C41.328 36.8011 41.358 36.7831 41.406 36.7771C41.544 36.7591 41.676 36.7801 41.802 36.8401C41.928 36.8941 42.033 36.9721 42.117 37.0741C42.255 37.2361 42.354 37.4011 42.414 37.5691C42.48 37.7311 42.537 37.9111 42.585 38.1091C42.615 38.2351 42.639 38.3611 42.657 38.4871C42.681 38.6071 42.702 38.7271 42.72 38.8471C43.092 38.7151 43.461 38.7241 43.827 38.8741C43.947 38.9221 44.028 38.9911 44.07 39.0811C44.112 39.1651 44.118 39.2491 44.088 39.3331C44.058 39.4291 44.001 39.4921 43.917 39.5221C43.839 39.5461 43.752 39.5431 43.656 39.5131C43.494 39.4651 43.344 39.4381 43.206 39.4321C43.074 39.4261 42.933 39.4591 42.783 39.5311C42.795 39.7471 42.798 39.9631 42.792 40.1791C42.792 40.3951 42.795 40.6141 42.801 40.8361ZM40.335 38.4511C40.335 38.6551 40.299 38.8411 40.227 39.0091C40.161 39.1771 40.068 39.3211 39.948 39.4411C39.828 39.5611 39.687 39.6541 39.525 39.7201C39.369 39.7801 39.204 39.8101 39.03 39.8101C38.82 39.8101 38.634 39.7711 38.472 39.6931C38.316 39.6151 38.184 39.5131 38.076 39.3871C37.968 39.2551 37.887 39.1021 37.833 38.9281C37.785 38.7541 37.764 38.5681 37.77 38.3701C37.776 38.1781 37.812 38.0011 37.878 37.8391C37.944 37.6771 38.034 37.5361 38.148 37.4161C38.262 37.2961 38.397 37.2061 38.553 37.1461C38.709 37.0801 38.883 37.0501 39.075 37.0561C39.285 37.0621 39.468 37.1041 39.624 37.1821C39.78 37.2541 39.909 37.3561 40.011 37.4881C40.119 37.6141 40.2 37.7611 40.254 37.9291C40.308 38.0911 40.335 38.2651 40.335 38.4511ZM37.887 41.7541C37.737 41.7661 37.623 41.7391 37.545 41.6731C37.473 41.6011 37.431 41.5231 37.419 41.4391C37.407 41.3431 37.434 41.2531 37.5 41.1691C37.572 41.0851 37.68 41.0371 37.824 41.0251L38.76 40.9351L38.769 40.3051C38.769 40.1971 38.802 40.1161 38.868 40.0621C38.94 40.0081 39.015 39.9811 39.093 39.9811C39.195 39.9811 39.273 40.0111 39.327 40.0711C39.387 40.1251 39.417 40.2031 39.417 40.3051L39.426 40.8721L40.56 40.7731C40.692 40.7611 40.791 40.7911 40.857 40.8631C40.923 40.9351 40.962 41.0161 40.974 41.1061C40.98 41.1961 40.956 41.2801 40.902 41.3581C40.848 41.4361 40.761 41.4811 40.641 41.4931L37.887 41.7541ZM38.499 38.4331C38.493 38.6371 38.541 38.7931 38.643 38.9011C38.751 39.0031 38.874 39.0601 39.012 39.0721C39.174 39.0841 39.309 39.0361 39.417 38.9281C39.525 38.8141 39.585 38.6701 39.597 38.4961C39.603 38.4181 39.597 38.3401 39.579 38.2621C39.567 38.1781 39.54 38.1031 39.498 38.0371C39.462 37.9711 39.414 37.9171 39.354 37.8751C39.294 37.8331 39.219 37.8061 39.129 37.7941C39.027 37.7821 38.937 37.7941 38.859 37.8301C38.781 37.8601 38.715 37.9051 38.661 37.9651C38.607 38.0251 38.565 38.0971 38.535 38.1811C38.511 38.2651 38.499 38.3491 38.499 38.4331ZM50.4952 41.3221C50.4352 41.7121 50.2132 41.8981 49.8292 41.8801C49.6552 41.8681 49.5172 41.7961 49.4152 41.6641C49.3192 41.5321 49.2952 41.3641 49.3432 41.1601C49.4272 40.8121 49.4932 40.4431 49.5412 40.0531C49.5952 39.6631 49.6222 39.2761 49.6222 38.8921C49.6222 38.6581 49.6102 38.4241 49.5862 38.1901C49.5622 37.9561 49.5262 37.7401 49.4782 37.5421C49.4482 37.4281 49.4362 37.3381 49.4422 37.2721C49.4542 37.2001 49.5082 37.1611 49.6042 37.1551C49.6882 37.1491 49.7662 37.1701 49.8382 37.2181C49.9162 37.2601 49.9852 37.3171 50.0452 37.3891C50.1112 37.4551 50.1652 37.5271 50.2072 37.6051C50.2492 37.6831 50.2822 37.7521 50.3062 37.8121C50.3722 37.9681 50.4232 38.1451 50.4592 38.3431C50.5012 38.5411 50.5342 38.7511 50.5582 38.9731C50.6722 38.9431 50.7802 38.9251 50.8822 38.9191C50.9902 38.9071 51.0952 38.9071 51.1972 38.9191C51.1852 38.3071 51.1132 37.7551 50.9812 37.2631C50.9632 37.2031 50.9542 37.1461 50.9542 37.0921C50.9602 37.0381 50.9902 37.0051 51.0442 36.9931C51.1282 36.9751 51.2092 36.9841 51.2872 37.0201C51.3712 37.0501 51.4462 37.0951 51.5122 37.1551C51.6982 37.3231 51.8422 37.5451 51.9442 37.8211C52.0342 38.0731 52.1002 38.3371 52.1422 38.6131C52.1842 38.8831 52.2142 39.1621 52.2322 39.4501C52.2502 39.8101 52.2502 40.1671 52.2322 40.5211C52.2142 40.8691 52.1872 41.2051 52.1512 41.5291C52.1272 41.7031 52.0492 41.8351 51.9172 41.9251C51.7912 42.0091 51.6442 42.0451 51.4762 42.0331C51.3022 42.0211 51.1702 41.9521 51.0802 41.8261C50.9902 41.7001 50.9602 41.5141 50.9902 41.2681C51.0262 40.9921 51.0622 40.7041 51.0982 40.4041C51.1402 40.1041 51.1702 39.8071 51.1882 39.5131C51.0862 39.5011 50.9872 39.5011 50.8912 39.5131C50.8012 39.5251 50.7052 39.5461 50.6032 39.5761V39.7921C50.6032 40.0621 50.5942 40.3291 50.5762 40.5931C50.5582 40.8511 50.5312 41.0941 50.4952 41.3221ZM47.9842 40.3321C48.0682 40.3381 48.1492 40.3381 48.2272 40.3321C48.3052 40.3201 48.3802 40.3081 48.4522 40.2961C48.7642 40.2181 48.9502 40.2781 49.0102 40.4761C49.0462 40.5841 49.0462 40.6921 49.0102 40.8001C48.9802 40.9081 48.8962 40.9951 48.7582 41.0611C48.6622 41.1091 48.5482 41.1451 48.4162 41.1691C48.2842 41.1931 48.1612 41.2051 48.0472 41.2051C47.7592 41.2051 47.5162 41.1661 47.3182 41.0881C47.1202 41.0041 46.9612 40.8871 46.8412 40.7371C46.7092 40.5751 46.6192 40.3771 46.5712 40.1431C46.5292 39.9091 46.5292 39.6481 46.5712 39.3601C46.6012 39.1801 46.6432 38.9941 46.6972 38.8021C46.7512 38.6101 46.8142 38.4511 46.8862 38.3251C46.9342 38.2411 46.9942 38.1871 47.0662 38.1631C47.1442 38.1391 47.2132 38.1391 47.2732 38.1631C47.3332 38.1871 47.3782 38.2291 47.4082 38.2891C47.4382 38.3491 47.4412 38.4211 47.4172 38.5051C47.3872 38.6251 47.3572 38.7721 47.3272 38.9461C47.2972 39.1201 47.2822 39.2851 47.2822 39.4411C47.2822 39.7471 47.3392 39.9691 47.4532 40.1071C47.5672 40.2451 47.7442 40.3201 47.9842 40.3321ZM56.4698 36.0121C56.7818 35.9701 57.0908 35.9371 57.3968 35.9131C57.7028 35.8891 57.9998 35.8831 58.2878 35.8951C58.5398 35.9011 58.7378 35.9611 58.8818 36.0751C59.0258 36.1831 59.0918 36.3511 59.0798 36.5791C59.0678 36.7711 59.0558 36.9661 59.0438 37.1641C59.0378 37.3561 59.0258 37.5391 59.0078 37.7131C58.9778 37.9831 58.9088 38.1751 58.8008 38.2891C58.6988 38.4031 58.5128 38.4511 58.2428 38.4331C58.0868 38.4271 57.9458 38.4241 57.8198 38.4241C57.6938 38.4181 57.5678 38.4211 57.4418 38.4331C57.3218 38.4391 57.1988 38.4511 57.0728 38.4691C56.9468 38.4811 56.8118 38.4961 56.6678 38.5141C56.3978 38.5501 56.2028 38.5201 56.0828 38.4241C55.9628 38.3221 55.8908 38.1271 55.8668 37.8391C55.8428 37.5331 55.8188 37.2451 55.7948 36.9751C55.7768 36.7051 55.7618 36.4351 55.7498 36.1651C55.7378 36.0271 55.7678 35.9221 55.8398 35.8501C55.9118 35.7781 55.9988 35.7391 56.1008 35.7331C56.2088 35.7211 56.2898 35.7421 56.3438 35.7961C56.3978 35.8501 56.4398 35.9221 56.4698 36.0121ZM56.5778 41.4211C56.4938 41.4391 56.4158 41.4391 56.3438 41.4211C56.2718 41.4031 56.2208 41.3611 56.1908 41.2951C56.1668 41.2411 56.1668 41.1781 56.1908 41.1061C56.2208 41.0281 56.2898 40.9651 56.3978 40.9171C56.5718 40.8451 56.7698 40.7971 56.9918 40.7731C57.2138 40.7431 57.4238 40.7281 57.6218 40.7281C57.9758 40.7281 58.2488 40.8061 58.4408 40.9621C58.6388 41.1121 58.7378 41.3131 58.7378 41.5651C58.7378 41.8171 58.6628 42.0061 58.5128 42.1321C58.3628 42.2581 58.1738 42.3211 57.9458 42.3211C57.8078 42.3211 57.6488 42.3211 57.4688 42.3211C57.2888 42.3271 57.1268 42.3361 56.9828 42.3481C56.9708 42.4201 56.9648 42.4771 56.9648 42.5191C56.9708 42.5671 56.9888 42.6181 57.0188 42.6721C57.0548 42.7441 57.1148 42.8011 57.1988 42.8431C57.2888 42.8851 57.3938 42.9001 57.5138 42.8881C57.6158 42.8761 57.7118 42.8521 57.8018 42.8161C57.8978 42.7861 58.0088 42.7381 58.1348 42.6721C58.2188 42.6301 58.3148 42.6211 58.4228 42.6451C58.5308 42.6691 58.6088 42.7321 58.6568 42.8341C58.7048 42.9361 58.7078 43.0351 58.6658 43.1311C58.6238 43.2271 58.5608 43.3081 58.4768 43.3741C58.3568 43.4701 58.2068 43.5361 58.0268 43.5721C57.8468 43.6141 57.6728 43.6291 57.5048 43.6171C57.2228 43.5991 56.9888 43.5241 56.8028 43.3921C56.6228 43.2661 56.5028 43.0831 56.4428 42.8431C56.4188 42.7591 56.4068 42.6781 56.4068 42.6001C56.4068 42.5281 56.4128 42.4501 56.4248 42.3661C56.2628 42.3541 56.1818 42.2731 56.1818 42.1231C56.1818 42.0571 56.2028 41.9941 56.2448 41.9341C56.2928 41.8741 56.3588 41.8381 56.4428 41.8261C56.5208 41.8141 56.6168 41.8051 56.7308 41.7991C56.8508 41.7871 56.9708 41.7781 57.0908 41.7721C57.2168 41.7661 57.3398 41.7631 57.4598 41.7631C57.5798 41.7571 57.6818 41.7541 57.7658 41.7541C57.9218 41.7541 58.0058 41.6881 58.0178 41.5561C58.0238 41.5081 58.0058 41.4631 57.9638 41.4211C57.9218 41.3731 57.8588 41.3431 57.7748 41.3311C57.5828 41.3011 57.3848 41.2981 57.1808 41.3221C56.9828 41.3401 56.7818 41.3731 56.5778 41.4211ZM55.6958 39.8281C55.5398 39.8401 55.4228 39.8131 55.3448 39.7471C55.2728 39.6811 55.2338 39.6031 55.2278 39.5131C55.2218 39.4231 55.2488 39.3331 55.3088 39.2431C55.3688 39.1531 55.4588 39.1021 55.5788 39.0901C55.8848 39.0601 56.1998 39.0331 56.5238 39.0091C56.8478 38.9851 57.1628 38.9611 57.4688 38.9371C57.7748 38.9131 58.0628 38.8921 58.3328 38.8741C58.6088 38.8561 58.8458 38.8411 59.0438 38.8291C59.1998 38.8171 59.3228 38.8501 59.4128 38.9281C59.5028 39.0001 59.5538 39.0811 59.5658 39.1711C59.5778 39.2611 59.5448 39.3481 59.4668 39.4321C59.3948 39.5161 59.2718 39.5641 59.0978 39.5761L57.8828 39.6571C57.8828 39.7411 57.8828 39.8251 57.8828 39.9091C57.8828 39.9871 57.8768 40.0771 57.8648 40.1791C57.8528 40.2931 57.8198 40.3861 57.7658 40.4581C57.7178 40.5241 57.6248 40.5601 57.4868 40.5661C57.3968 40.5721 57.3158 40.5421 57.2438 40.4761C57.1718 40.4041 57.1358 40.3171 57.1358 40.2151V39.7201L55.6958 39.8281ZM56.6318 37.8121C56.9078 37.7641 57.1598 37.7341 57.3878 37.7221C57.6218 37.7041 57.8738 37.6981 58.1438 37.7041C58.1558 37.5301 58.1648 37.3771 58.1708 37.2451C58.1768 37.1071 58.1858 36.9391 58.1978 36.7411C58.1978 36.6451 58.1438 36.5911 58.0358 36.5791C57.7718 36.5791 57.5258 36.5851 57.2978 36.5971C57.0698 36.6031 56.8238 36.6271 56.5598 36.6691C56.5718 36.8791 56.5838 37.0681 56.5958 37.2361C56.6078 37.3981 56.6198 37.5901 56.6318 37.8121ZM64.0383 36.6151C64.0143 36.5191 64.0203 36.4411 64.0563 36.3811C64.0923 36.3271 64.1673 36.3031 64.2813 36.3091C64.4913 36.3271 64.6653 36.4171 64.8033 36.5791C64.9473 36.7411 65.0673 36.9361 65.1633 37.1641C65.2533 37.3861 65.3223 37.6141 65.3703 37.8481C65.4183 38.0761 65.4543 38.2621 65.4783 38.4061C65.5203 38.7001 65.5443 38.9971 65.5503 39.2971C65.5563 39.5971 65.5443 39.8821 65.5143 40.1521C65.4903 40.3621 65.4483 40.5361 65.3883 40.6741C65.3283 40.8061 65.2563 40.9111 65.1723 40.9891C65.0883 41.0611 64.9983 41.1091 64.9023 41.1331C64.8063 41.1571 64.7103 41.1631 64.6143 41.1511C64.3503 41.1091 64.1703 40.9741 64.0743 40.7461C63.9783 40.5181 63.9693 40.2481 64.0473 39.9361C64.0773 39.7981 64.1043 39.6631 64.1283 39.5311C64.1523 39.3991 64.1733 39.2671 64.1913 39.1351C64.0413 39.0931 63.8943 39.0811 63.7503 39.0991C63.6123 39.1171 63.4653 39.1531 63.3093 39.2071C63.2133 39.2371 63.1233 39.2371 63.0393 39.2071C62.9553 39.1771 62.9013 39.1231 62.8773 39.0451C62.8533 38.9611 62.8653 38.8771 62.9133 38.7931C62.9613 38.7031 63.0483 38.6311 63.1743 38.5771C63.3423 38.5051 63.5193 38.4601 63.7053 38.4421C63.8913 38.4181 64.0713 38.4211 64.2453 38.4511V38.3611C64.2453 38.0671 64.2273 37.7761 64.1913 37.4881C64.1553 37.2001 64.1043 36.9091 64.0383 36.6151ZM60.4833 37.9201C60.3873 37.9621 60.3003 37.9711 60.2223 37.9471C60.1443 37.9231 60.0813 37.8781 60.0333 37.8121C59.9913 37.7401 59.9763 37.6621 59.9883 37.5781C60.0003 37.4881 60.0513 37.4101 60.1413 37.3441C60.2493 37.2481 60.4023 37.1641 60.6003 37.0921C60.8043 37.0201 61.0023 36.9781 61.1943 36.9661C61.5303 36.9541 61.8003 36.9781 62.0043 37.0381C62.2083 37.0921 62.3823 37.2121 62.5263 37.3981C62.6463 37.5541 62.7183 37.7491 62.7423 37.9831C62.7663 38.2111 62.7543 38.4721 62.7063 38.7661C62.6763 38.9401 62.6283 39.1171 62.5623 39.2971C62.5023 39.4711 62.4273 39.6451 62.3373 39.8191C62.2473 39.9871 62.1453 40.1491 62.0313 40.3051C61.9173 40.4551 61.8003 40.5871 61.6803 40.7011C61.5243 40.8511 61.3443 40.9441 61.1403 40.9801C60.9423 41.0161 60.7773 40.9771 60.6453 40.8631C60.5253 40.7551 60.4593 40.6231 60.4473 40.4671C60.4413 40.3111 60.5223 40.1491 60.6903 39.9811C60.8823 39.7891 61.0443 39.6001 61.1763 39.4141C61.3143 39.2221 61.4373 39.0121 61.5453 38.7841C61.5693 38.7361 61.5933 38.6791 61.6173 38.6131C61.6473 38.5411 61.6713 38.4661 61.6893 38.3881C61.7073 38.3101 61.7163 38.2321 61.7163 38.1541C61.7163 38.0701 61.6983 37.9921 61.6623 37.9201C61.6203 37.8361 61.5423 37.7761 61.4283 37.7401C61.3203 37.6981 61.2123 37.6831 61.1043 37.6951C60.9843 37.7131 60.8763 37.7431 60.7803 37.7851C60.6843 37.8211 60.5853 37.8661 60.4833 37.9201ZM63.9033 42.2131C64.0713 42.2071 64.2183 42.1741 64.3443 42.1141C64.4763 42.0541 64.6113 41.9791 64.7493 41.8891C64.9113 41.7811 65.0583 41.7451 65.1903 41.7811C65.3283 41.8171 65.4303 41.8861 65.4963 41.9881C65.5623 42.1021 65.5713 42.2341 65.5233 42.3841C65.4813 42.5341 65.3613 42.6691 65.1633 42.7891C64.8333 42.9811 64.4373 43.0771 63.9753 43.0771C63.7173 43.0771 63.4893 43.0381 63.2913 42.9601C63.0933 42.8821 62.9283 42.7741 62.7963 42.6361C62.6703 42.4981 62.5803 42.3301 62.5263 42.1321C62.4783 41.9341 62.4723 41.7181 62.5083 41.4841C62.5203 41.4001 62.5353 41.3251 62.5533 41.2591C62.5773 41.1871 62.6103 41.1181 62.6523 41.0521C62.7003 40.9681 62.7603 40.9111 62.8323 40.8811C62.9043 40.8511 62.9733 40.8481 63.0393 40.8721C63.0993 40.8961 63.1443 40.9321 63.1743 40.9801C63.2103 41.0281 63.2193 41.0881 63.2013 41.1601C63.1773 41.2801 63.1593 41.4001 63.1473 41.5201C63.1353 41.7541 63.1953 41.9311 63.3273 42.0511C63.4593 42.1711 63.6513 42.2251 63.9033 42.2131Z" fill="white"/>
<path d="M15.2137 14.1318L17.2071 22.6187C17.4759 23.7634 19.3135 23.8243 19.6221 22.6988C19.6528 22.5865 19.6629 22.4703 19.652 22.3544L19.0038 15.4902C18.9888 15.3307 18.9898 15.1706 19.007 15.0118L19.0182 14.9075C19.1675 13.5254 20.5341 12.5192 22.1112 12.6303C22.371 12.6486 22.6275 12.6971 22.8742 12.7747L29.6727 14.9118C29.831 14.9615 29.9981 14.9842 30.1648 14.9785C31.522 14.9318 31.8567 13.3112 30.6149 12.799L21.9038 9.20619C18.1782 7.84672 14.3337 10.6766 15.2137 14.1318Z" fill="white" stroke="white"/>
<path d="M16.0778 20.6284L20.0971 20.2446" stroke="#FEB3B3"/>
<path d="M15.6312 18.639L20.5437 18.2658" stroke="#FEB3B3"/>
<path d="M27.7019 15.0794L29.91 11.1111" stroke="#FEB3B3"/>
<path d="M25.0161 14.2857L27.2364 10.7143" stroke="#FEB3B3"/>
</svg>
