<svg width="92" height="50" viewBox="0 0 92 50" fill="none" xmlns="http://www.w3.org/2000/svg">
<path d="M26.7637 27.2599L33.5189 26.6205M38.4728 25.9412L33.5189 26.6205M33.5189 26.6205V31.8235" stroke="white" stroke-width="2"/>
<path d="M41.3999 19.3235V21.1618M41.3999 21.1618V25.3088C41.3999 25.8611 41.8476 26.3088 42.3999 26.3088H44.9999C45.5522 26.3088 45.9999 25.8611 45.9999 25.3088V20.8C45.9999 20.0927 45.2856 19.609 44.6288 19.8714L41.3999 21.1618Z" stroke="white" stroke-width="2"/>
<path d="M47.6726 23.3676H50.5999M50.5999 23.3676V17.1176M50.5999 23.3676V29.9853" stroke="white" stroke-width="2"/>
<path d="M54.3638 16.75V23.7353V31.0882" stroke="white" stroke-width="2"/>
<path d="M58.8591 18.9282H64.1607C65.0435 18.9282 65.7591 19.6438 65.7591 20.5267V20.5267C65.7591 21.4095 65.0435 22.1251 64.1607 22.1251H60.8591C59.7546 22.1251 58.8591 23.0206 58.8591 24.1251V24.2811C58.8591 25.3857 59.7546 26.2811 60.8591 26.2811H65.7591" stroke="white" stroke-width="2"/>
<path d="M28.8545 17.1177V21.1618M36.7999 16.3824V19.5074M36.7999 19.5074V19.9083C36.7999 21.8913 35.3376 23.5707 33.3735 23.8433L32.1319 24.0157C30.3997 24.2561 28.8545 22.9106 28.8545 21.1618V21.1618M36.7999 19.5074L28.8545 21.1618" stroke="white" stroke-width="2"/>
<path d="M71.0908 21.8694H75.2727" stroke="white" stroke-width="2"/>
<path d="M68.5818 27.7517V18.2618C68.5818 18.0157 68.6541 17.7751 68.7898 17.5699V17.5699C69.2858 16.8197 70.3868 16.8197 70.8828 17.5699V17.5699C71.0185 17.7751 71.0909 18.0157 71.0909 18.2618V27.7517" stroke="white" stroke-width="1.5"/>
<path d="M69.1721 27.3651H69.8825H70.1676C72.3593 27.3651 74.1359 29.1417 74.1359 31.3333C74.1359 33.5249 72.3593 35.3016 70.1676 35.3016H69.8825H69.1721C66.9805 35.3016 65.2039 33.5249 65.2039 31.3333C65.2039 29.1417 66.9805 27.3651 69.1721 27.3651Z" stroke="white" stroke-width="1.5"/>
<path d="M71.0342 29.164L71.1883 29.2872C72.3533 30.2183 72.2754 32.0137 71.0342 32.8404V32.8404" stroke="white"/>
<path d="M69.83 32.8404H69.729C69.5259 32.8404 69.3613 33.005 69.3613 33.2081C69.3613 33.4111 69.5259 33.5757 69.729 33.5757H69.83C70.0331 33.5757 70.1977 33.4111 70.1977 33.2081C70.1977 33.005 70.0331 32.8404 69.83 32.8404Z" stroke="white"/>
<path d="M32.0447 36.9661C31.9247 36.9781 31.8287 36.9601 31.7567 36.9121C31.6847 36.8641 31.6457 36.7951 31.6397 36.7051C31.6277 36.5191 31.7567 36.3961 32.0267 36.3361C32.4167 36.2521 32.8307 36.1951 33.2687 36.1651C33.7067 36.1291 34.1147 36.1261 34.4927 36.1561C34.6727 36.1681 34.8077 36.2131 34.8977 36.2911C34.9877 36.3691 35.0267 36.4681 35.0147 36.5881C35.0027 36.7021 34.9487 36.7831 34.8527 36.8311C34.7627 36.8731 34.6367 36.8941 34.4747 36.8941C34.3367 36.8941 34.1927 36.8941 34.0427 36.8941C33.8987 36.8881 33.7577 36.8851 33.6197 36.8851C33.4817 36.8851 33.3497 36.8881 33.2237 36.8941C33.0977 36.9001 32.9897 36.9091 32.8997 36.9211C32.8337 37.0471 32.8007 37.1791 32.8007 37.3171C32.8067 37.4551 32.8457 37.5691 32.9177 37.6591C32.9717 37.7251 33.0467 37.7821 33.1427 37.8301C33.2447 37.8781 33.3557 37.9081 33.4757 37.9201C33.6377 37.9321 33.7937 37.9231 33.9437 37.8931C34.0997 37.8631 34.2437 37.8271 34.3757 37.7851C34.8077 37.6531 35.0717 37.7101 35.1677 37.9561C35.2277 38.1061 35.2067 38.2381 35.1047 38.3521C35.0027 38.4661 34.8107 38.5561 34.5287 38.6221C34.3847 38.6521 34.2467 38.6761 34.1147 38.6941C33.9827 38.7061 33.8657 38.7121 33.7637 38.7121C33.5357 38.7121 33.3347 38.7001 33.1607 38.6761C32.9867 38.6461 32.8307 38.6071 32.6927 38.5591C32.5307 38.4991 32.3927 38.4151 32.2787 38.3071C32.1707 38.1991 32.0897 38.0761 32.0357 37.9381C31.9817 37.7941 31.9547 37.6411 31.9547 37.4791C31.9607 37.3111 31.9907 37.1401 32.0447 36.9661ZM32.8007 41.4301C32.7167 41.4481 32.6387 41.4481 32.5667 41.4301C32.4947 41.4121 32.4437 41.3701 32.4137 41.3041C32.3897 41.2501 32.3897 41.1871 32.4137 41.1151C32.4437 41.0371 32.5127 40.9741 32.6207 40.9261C32.7947 40.8541 32.9927 40.8061 33.2147 40.7821C33.4367 40.7521 33.6467 40.7371 33.8447 40.7371C34.1987 40.7371 34.4717 40.8151 34.6637 40.9711C34.8617 41.1211 34.9607 41.3221 34.9607 41.5741C34.9607 41.8261 34.8857 42.0151 34.7357 42.1411C34.5857 42.2671 34.3967 42.3301 34.1687 42.3301C34.0307 42.3301 33.8717 42.3301 33.6917 42.3301C33.5117 42.3361 33.3497 42.3451 33.2057 42.3571C33.1937 42.4291 33.1877 42.4861 33.1877 42.5281C33.1937 42.5761 33.2117 42.6271 33.2417 42.6811C33.2777 42.7531 33.3377 42.8101 33.4217 42.8521C33.5117 42.8941 33.6167 42.9091 33.7367 42.8971C33.8387 42.8851 33.9347 42.8611 34.0247 42.8251C34.1207 42.7951 34.2317 42.7471 34.3577 42.6811C34.4417 42.6391 34.5377 42.6301 34.6457 42.6541C34.7537 42.6781 34.8317 42.7411 34.8797 42.8431C34.9277 42.9451 34.9307 43.0441 34.8887 43.1401C34.8467 43.2361 34.7837 43.3171 34.6997 43.3831C34.5797 43.4791 34.4297 43.5451 34.2497 43.5811C34.0697 43.6231 33.8957 43.6381 33.7277 43.6261C33.4457 43.6081 33.2117 43.5331 33.0257 43.4011C32.8457 43.2751 32.7257 43.0921 32.6657 42.8521C32.6417 42.7681 32.6297 42.6871 32.6297 42.6091C32.6297 42.5371 32.6357 42.4591 32.6477 42.3751C32.4857 42.3631 32.4047 42.2821 32.4047 42.1321C32.4047 42.0661 32.4257 42.0031 32.4677 41.9431C32.5157 41.8831 32.5817 41.8471 32.6657 41.8351C32.7437 41.8231 32.8397 41.8141 32.9537 41.8081C33.0737 41.7961 33.1937 41.7871 33.3137 41.7811C33.4397 41.7751 33.5627 41.7721 33.6827 41.7721C33.8027 41.7661 33.9047 41.7631 33.9887 41.7631C34.1447 41.7631 34.2287 41.6971 34.2407 41.5651C34.2467 41.5171 34.2287 41.4721 34.1867 41.4301C34.1447 41.3821 34.0817 41.3521 33.9977 41.3401C33.8057 41.3101 33.6077 41.3071 33.4037 41.3311C33.2057 41.3491 33.0047 41.3821 32.8007 41.4301ZM35.0057 39.5221C35.1917 39.5101 35.3447 39.5281 35.4647 39.5761C35.5907 39.6241 35.6567 39.7231 35.6627 39.8731C35.6687 39.9991 35.6357 40.0891 35.5637 40.1431C35.4917 40.1911 35.3507 40.2301 35.1407 40.2601C34.5947 40.3081 34.0727 40.3531 33.5747 40.3951C33.0767 40.4371 32.5787 40.4791 32.0807 40.5211C31.9067 40.5391 31.7717 40.5121 31.6757 40.4401C31.5857 40.3621 31.5347 40.2751 31.5227 40.1791C31.5107 40.0831 31.5377 39.9961 31.6037 39.9181C31.6757 39.8341 31.7807 39.7831 31.9187 39.7651C32.0567 39.7471 32.2367 39.7291 32.4587 39.7111C32.6807 39.6931 32.9267 39.6721 33.1967 39.6481C33.1967 39.5581 33.1967 39.4681 33.1967 39.3781C33.2027 39.2881 33.2087 39.2161 33.2147 39.1621C33.2207 39.0541 33.2597 38.9701 33.3317 38.9101C33.4037 38.8501 33.4907 38.8201 33.5927 38.8201C33.7127 38.8201 33.8117 38.8531 33.8897 38.9191C33.9737 38.9791 34.0127 39.0781 34.0067 39.2161C34.0007 39.2821 33.9977 39.3451 33.9977 39.4051C33.9977 39.4651 33.9977 39.5281 33.9977 39.5941C34.1777 39.5821 34.3517 39.5701 34.5197 39.5581C34.6937 39.5461 34.8557 39.5341 35.0057 39.5221ZM41.9128 38.9371C41.9608 38.9551 42.0058 38.9761 42.0478 39.0001C42.0958 39.0181 42.1408 39.0421 42.1828 39.0721C42.2428 39.1201 42.2818 39.1771 42.2998 39.2431C42.3178 39.3091 42.3178 39.3691 42.2998 39.4231C42.2758 39.4891 42.2398 39.5371 42.1918 39.5671C42.1438 39.5971 42.0928 39.6121 42.0388 39.6121C41.9728 39.6121 41.9098 39.6001 41.8498 39.5761C41.7898 39.5521 41.7298 39.5341 41.6698 39.5221C41.5138 39.4801 41.3728 39.4681 41.2468 39.4861C41.1208 39.4981 40.9888 39.5371 40.8508 39.6031C40.8568 39.7471 40.8598 39.9061 40.8598 40.0801C40.8598 40.2541 40.8568 40.4311 40.8508 40.6111C40.8448 40.7911 40.8358 40.9651 40.8238 41.1331C40.8118 41.3011 40.7968 41.4511 40.7788 41.5831C40.7548 41.7391 40.6828 41.8621 40.5628 41.9521C40.4428 42.0361 40.2778 42.0751 40.0678 42.0691C39.9118 42.0631 39.7768 42.0181 39.6628 41.9341C39.5548 41.8501 39.5068 41.7241 39.5188 41.5561C39.5368 41.3641 39.5548 41.1571 39.5728 40.9351C39.5908 40.7131 39.6058 40.4941 39.6178 40.2781C39.6298 40.0621 39.6388 39.8581 39.6448 39.6661C39.6568 39.4681 39.6628 39.2971 39.6628 39.1531C39.6628 38.8591 39.6598 38.5591 39.6538 38.2531C39.6478 37.9471 39.6208 37.6591 39.5728 37.3891C39.5668 37.3531 39.5578 37.3081 39.5458 37.2541C39.5398 37.1941 39.5398 37.1401 39.5458 37.0921C39.5578 37.0141 39.5818 36.9721 39.6178 36.9661C39.6598 36.9541 39.7108 36.9541 39.7708 36.9661C39.8788 36.9841 39.9658 37.0171 40.0318 37.0651C40.1038 37.1131 40.1728 37.1701 40.2388 37.2361C40.3948 37.4101 40.5178 37.6441 40.6078 37.9381C40.6978 38.2261 40.7638 38.5681 40.8058 38.9641C40.9858 38.8801 41.1718 38.8381 41.3638 38.8381C41.5558 38.8381 41.7388 38.8711 41.9128 38.9371ZM36.0898 39.7921C36.0958 39.5641 36.1348 39.3631 36.2068 39.1891C36.2788 39.0151 36.3718 38.8711 36.4858 38.7571C36.6058 38.6431 36.7378 38.5591 36.8818 38.5051C37.0258 38.4451 37.1758 38.4151 37.3318 38.4151C37.5238 38.4151 37.6978 38.4571 37.8538 38.5411C38.0098 38.6191 38.1388 38.7271 38.2408 38.8651C38.3488 39.0031 38.4268 39.1651 38.4748 39.3511C38.5288 39.5311 38.5468 39.7261 38.5288 39.9361C38.4868 40.3561 38.3488 40.6771 38.1148 40.8991C37.8808 41.1151 37.5928 41.2171 37.2508 41.2051C36.8788 41.1931 36.5878 41.0611 36.3778 40.8091C36.1738 40.5571 36.0778 40.2181 36.0898 39.7921ZM36.8008 39.8551C36.8068 40.0291 36.8488 40.1731 36.9268 40.2871C37.0048 40.4011 37.1098 40.4611 37.2418 40.4671C37.4218 40.4731 37.5598 40.4191 37.6558 40.3051C37.7578 40.1911 37.8118 40.0411 37.8178 39.8551C37.8238 39.6331 37.7758 39.4651 37.6738 39.3511C37.5778 39.2371 37.4428 39.1861 37.2688 39.1981C37.1008 39.2101 36.9808 39.2821 36.9088 39.4141C36.8368 39.5401 36.8008 39.6871 36.8008 39.8551ZM47.801 40.8361C47.801 40.9861 47.795 41.1361 47.783 41.2861C47.771 41.4301 47.75 41.5771 47.72 41.7271C47.696 41.8531 47.648 41.9551 47.576 42.0331C47.51 42.1051 47.429 42.1621 47.333 42.2041C47.243 42.2401 47.144 42.2641 47.036 42.2761C46.934 42.2821 46.832 42.2761 46.73 42.2581C46.508 42.2101 46.376 42.1111 46.334 41.9611C46.298 41.8051 46.295 41.6311 46.325 41.4391C46.385 41.1031 46.436 40.7461 46.478 40.3681C46.52 39.9901 46.547 39.6211 46.559 39.2611C46.571 38.8711 46.562 38.5111 46.532 38.1811C46.508 37.8451 46.451 37.5121 46.361 37.1821C46.349 37.1461 46.337 37.1071 46.325 37.0651C46.313 37.0231 46.304 36.9811 46.298 36.9391C46.298 36.8971 46.304 36.8611 46.316 36.8311C46.328 36.8011 46.358 36.7831 46.406 36.7771C46.544 36.7591 46.676 36.7801 46.802 36.8401C46.928 36.8941 47.033 36.9721 47.117 37.0741C47.255 37.2361 47.354 37.4011 47.414 37.5691C47.48 37.7311 47.537 37.9111 47.585 38.1091C47.615 38.2351 47.639 38.3611 47.657 38.4871C47.681 38.6071 47.702 38.7271 47.72 38.8471C48.092 38.7151 48.461 38.7241 48.827 38.8741C48.947 38.9221 49.028 38.9911 49.07 39.0811C49.112 39.1651 49.118 39.2491 49.088 39.3331C49.058 39.4291 49.001 39.4921 48.917 39.5221C48.839 39.5461 48.752 39.5431 48.656 39.5131C48.494 39.4651 48.344 39.4381 48.206 39.4321C48.074 39.4261 47.933 39.4591 47.783 39.5311C47.795 39.7471 47.798 39.9631 47.792 40.1791C47.792 40.3951 47.795 40.6141 47.801 40.8361ZM45.335 38.4511C45.335 38.6551 45.299 38.8411 45.227 39.0091C45.161 39.1771 45.068 39.3211 44.948 39.4411C44.828 39.5611 44.687 39.6541 44.525 39.7201C44.369 39.7801 44.204 39.8101 44.03 39.8101C43.82 39.8101 43.634 39.7711 43.472 39.6931C43.316 39.6151 43.184 39.5131 43.076 39.3871C42.968 39.2551 42.887 39.1021 42.833 38.9281C42.785 38.7541 42.764 38.5681 42.77 38.3701C42.776 38.1781 42.812 38.0011 42.878 37.8391C42.944 37.6771 43.034 37.5361 43.148 37.4161C43.262 37.2961 43.397 37.2061 43.553 37.1461C43.709 37.0801 43.883 37.0501 44.075 37.0561C44.285 37.0621 44.468 37.1041 44.624 37.1821C44.78 37.2541 44.909 37.3561 45.011 37.4881C45.119 37.6141 45.2 37.7611 45.254 37.9291C45.308 38.0911 45.335 38.2651 45.335 38.4511ZM42.887 41.7541C42.737 41.7661 42.623 41.7391 42.545 41.6731C42.473 41.6011 42.431 41.5231 42.419 41.4391C42.407 41.3431 42.434 41.2531 42.5 41.1691C42.572 41.0851 42.68 41.0371 42.824 41.0251L43.76 40.9351L43.769 40.3051C43.769 40.1971 43.802 40.1161 43.868 40.0621C43.94 40.0081 44.015 39.9811 44.093 39.9811C44.195 39.9811 44.273 40.0111 44.327 40.0711C44.387 40.1251 44.417 40.2031 44.417 40.3051L44.426 40.8721L45.56 40.7731C45.692 40.7611 45.791 40.7911 45.857 40.8631C45.923 40.9351 45.962 41.0161 45.974 41.1061C45.98 41.1961 45.956 41.2801 45.902 41.3581C45.848 41.4361 45.761 41.4811 45.641 41.4931L42.887 41.7541ZM43.499 38.4331C43.493 38.6371 43.541 38.7931 43.643 38.9011C43.751 39.0031 43.874 39.0601 44.012 39.0721C44.174 39.0841 44.309 39.0361 44.417 38.9281C44.525 38.8141 44.585 38.6701 44.597 38.4961C44.603 38.4181 44.597 38.3401 44.579 38.2621C44.567 38.1781 44.54 38.1031 44.498 38.0371C44.462 37.9711 44.414 37.9171 44.354 37.8751C44.294 37.8331 44.219 37.8061 44.129 37.7941C44.027 37.7821 43.937 37.7941 43.859 37.8301C43.781 37.8601 43.715 37.9051 43.661 37.9651C43.607 38.0251 43.565 38.0971 43.535 38.1811C43.511 38.2651 43.499 38.3491 43.499 38.4331ZM55.4952 41.3221C55.4352 41.7121 55.2132 41.8981 54.8292 41.8801C54.6552 41.8681 54.5172 41.7961 54.4152 41.6641C54.3192 41.5321 54.2952 41.3641 54.3432 41.1601C54.4272 40.8121 54.4932 40.4431 54.5412 40.0531C54.5952 39.6631 54.6222 39.2761 54.6222 38.8921C54.6222 38.6581 54.6102 38.4241 54.5862 38.1901C54.5622 37.9561 54.5262 37.7401 54.4782 37.5421C54.4482 37.4281 54.4362 37.3381 54.4422 37.2721C54.4542 37.2001 54.5082 37.1611 54.6042 37.1551C54.6882 37.1491 54.7662 37.1701 54.8382 37.2181C54.9162 37.2601 54.9852 37.3171 55.0452 37.3891C55.1112 37.4551 55.1652 37.5271 55.2072 37.6051C55.2492 37.6831 55.2822 37.7521 55.3062 37.8121C55.3722 37.9681 55.4232 38.1451 55.4592 38.3431C55.5012 38.5411 55.5342 38.7511 55.5582 38.9731C55.6722 38.9431 55.7802 38.9251 55.8822 38.9191C55.9902 38.9071 56.0952 38.9071 56.1972 38.9191C56.1852 38.3071 56.1132 37.7551 55.9812 37.2631C55.9632 37.2031 55.9542 37.1461 55.9542 37.0921C55.9602 37.0381 55.9902 37.0051 56.0442 36.9931C56.1282 36.9751 56.2092 36.9841 56.2872 37.0201C56.3712 37.0501 56.4462 37.0951 56.5122 37.1551C56.6982 37.3231 56.8422 37.5451 56.9442 37.8211C57.0342 38.0731 57.1002 38.3371 57.1422 38.6131C57.1842 38.8831 57.2142 39.1621 57.2322 39.4501C57.2502 39.8101 57.2502 40.1671 57.2322 40.5211C57.2142 40.8691 57.1872 41.2051 57.1512 41.5291C57.1272 41.7031 57.0492 41.8351 56.9172 41.9251C56.7912 42.0091 56.6442 42.0451 56.4762 42.0331C56.3022 42.0211 56.1702 41.9521 56.0802 41.8261C55.9902 41.7001 55.9602 41.5141 55.9902 41.2681C56.0262 40.9921 56.0622 40.7041 56.0982 40.4041C56.1402 40.1041 56.1702 39.8071 56.1882 39.5131C56.0862 39.5011 55.9872 39.5011 55.8912 39.5131C55.8012 39.5251 55.7052 39.5461 55.6032 39.5761V39.7921C55.6032 40.0621 55.5942 40.3291 55.5762 40.5931C55.5582 40.8511 55.5312 41.0941 55.4952 41.3221ZM52.9842 40.3321C53.0682 40.3381 53.1492 40.3381 53.2272 40.3321C53.3052 40.3201 53.3802 40.3081 53.4522 40.2961C53.7642 40.2181 53.9502 40.2781 54.0102 40.4761C54.0462 40.5841 54.0462 40.6921 54.0102 40.8001C53.9802 40.9081 53.8962 40.9951 53.7582 41.0611C53.6622 41.1091 53.5482 41.1451 53.4162 41.1691C53.2842 41.1931 53.1612 41.2051 53.0472 41.2051C52.7592 41.2051 52.5162 41.1661 52.3182 41.0881C52.1202 41.0041 51.9612 40.8871 51.8412 40.7371C51.7092 40.5751 51.6192 40.3771 51.5712 40.1431C51.5292 39.9091 51.5292 39.6481 51.5712 39.3601C51.6012 39.1801 51.6432 38.9941 51.6972 38.8021C51.7512 38.6101 51.8142 38.4511 51.8862 38.3251C51.9342 38.2411 51.9942 38.1871 52.0662 38.1631C52.1442 38.1391 52.2132 38.1391 52.2732 38.1631C52.3332 38.1871 52.3782 38.2291 52.4082 38.2891C52.4382 38.3491 52.4412 38.4211 52.4172 38.5051C52.3872 38.6251 52.3572 38.7721 52.3272 38.9461C52.2972 39.1201 52.2822 39.2851 52.2822 39.4411C52.2822 39.7471 52.3392 39.9691 52.4532 40.1071C52.5672 40.2451 52.7442 40.3201 52.9842 40.3321ZM61.4698 36.0121C61.7818 35.9701 62.0908 35.9371 62.3968 35.9131C62.7028 35.8891 62.9998 35.8831 63.2878 35.8951C63.5398 35.9011 63.7378 35.9611 63.8818 36.0751C64.0258 36.1831 64.0918 36.3511 64.0798 36.5791C64.0678 36.7711 64.0558 36.9661 64.0438 37.1641C64.0378 37.3561 64.0258 37.5391 64.0078 37.7131C63.9778 37.9831 63.9088 38.1751 63.8008 38.2891C63.6988 38.4031 63.5128 38.4511 63.2428 38.4331C63.0868 38.4271 62.9458 38.4241 62.8198 38.4241C62.6938 38.4181 62.5678 38.4211 62.4418 38.4331C62.3218 38.4391 62.1988 38.4511 62.0728 38.4691C61.9468 38.4811 61.8118 38.4961 61.6678 38.5141C61.3978 38.5501 61.2028 38.5201 61.0828 38.4241C60.9628 38.3221 60.8908 38.1271 60.8668 37.8391C60.8428 37.5331 60.8188 37.2451 60.7948 36.9751C60.7768 36.7051 60.7618 36.4351 60.7498 36.1651C60.7378 36.0271 60.7678 35.9221 60.8398 35.8501C60.9118 35.7781 60.9988 35.7391 61.1008 35.7331C61.2088 35.7211 61.2898 35.7421 61.3438 35.7961C61.3978 35.8501 61.4398 35.9221 61.4698 36.0121ZM61.5778 41.4211C61.4938 41.4391 61.4158 41.4391 61.3438 41.4211C61.2718 41.4031 61.2208 41.3611 61.1908 41.2951C61.1668 41.2411 61.1668 41.1781 61.1908 41.1061C61.2208 41.0281 61.2898 40.9651 61.3978 40.9171C61.5718 40.8451 61.7698 40.7971 61.9918 40.7731C62.2138 40.7431 62.4238 40.7281 62.6218 40.7281C62.9758 40.7281 63.2488 40.8061 63.4408 40.9621C63.6388 41.1121 63.7378 41.3131 63.7378 41.5651C63.7378 41.8171 63.6628 42.0061 63.5128 42.1321C63.3628 42.2581 63.1738 42.3211 62.9458 42.3211C62.8078 42.3211 62.6488 42.3211 62.4688 42.3211C62.2888 42.3271 62.1268 42.3361 61.9828 42.3481C61.9708 42.4201 61.9648 42.4771 61.9648 42.5191C61.9708 42.5671 61.9888 42.6181 62.0188 42.6721C62.0548 42.7441 62.1148 42.8011 62.1988 42.8431C62.2888 42.8851 62.3938 42.9001 62.5138 42.8881C62.6158 42.8761 62.7118 42.8521 62.8018 42.8161C62.8978 42.7861 63.0088 42.7381 63.1348 42.6721C63.2188 42.6301 63.3148 42.6211 63.4228 42.6451C63.5308 42.6691 63.6088 42.7321 63.6568 42.8341C63.7048 42.9361 63.7078 43.0351 63.6658 43.1311C63.6238 43.2271 63.5608 43.3081 63.4768 43.3741C63.3568 43.4701 63.2068 43.5361 63.0268 43.5721C62.8468 43.6141 62.6728 43.6291 62.5048 43.6171C62.2228 43.5991 61.9888 43.5241 61.8028 43.3921C61.6228 43.2661 61.5028 43.0831 61.4428 42.8431C61.4188 42.7591 61.4068 42.6781 61.4068 42.6001C61.4068 42.5281 61.4128 42.4501 61.4248 42.3661C61.2628 42.3541 61.1818 42.2731 61.1818 42.1231C61.1818 42.0571 61.2028 41.9941 61.2448 41.9341C61.2928 41.8741 61.3588 41.8381 61.4428 41.8261C61.5208 41.8141 61.6168 41.8051 61.7308 41.7991C61.8508 41.7871 61.9708 41.7781 62.0908 41.7721C62.2168 41.7661 62.3398 41.7631 62.4598 41.7631C62.5798 41.7571 62.6818 41.7541 62.7658 41.7541C62.9218 41.7541 63.0058 41.6881 63.0178 41.5561C63.0238 41.5081 63.0058 41.4631 62.9638 41.4211C62.9218 41.3731 62.8588 41.3431 62.7748 41.3311C62.5828 41.3011 62.3848 41.2981 62.1808 41.3221C61.9828 41.3401 61.7818 41.3731 61.5778 41.4211ZM60.6958 39.8281C60.5398 39.8401 60.4228 39.8131 60.3448 39.7471C60.2728 39.6811 60.2338 39.6031 60.2278 39.5131C60.2218 39.4231 60.2488 39.3331 60.3088 39.2431C60.3688 39.1531 60.4588 39.1021 60.5788 39.0901C60.8848 39.0601 61.1998 39.0331 61.5238 39.0091C61.8478 38.9851 62.1628 38.9611 62.4688 38.9371C62.7748 38.9131 63.0628 38.8921 63.3328 38.8741C63.6088 38.8561 63.8458 38.8411 64.0438 38.8291C64.1998 38.8171 64.3228 38.8501 64.4128 38.9281C64.5028 39.0001 64.5538 39.0811 64.5658 39.1711C64.5778 39.2611 64.5448 39.3481 64.4668 39.4321C64.3948 39.5161 64.2718 39.5641 64.0978 39.5761L62.8828 39.6571C62.8828 39.7411 62.8828 39.8251 62.8828 39.9091C62.8828 39.9871 62.8768 40.0771 62.8648 40.1791C62.8528 40.2931 62.8198 40.3861 62.7658 40.4581C62.7178 40.5241 62.6248 40.5601 62.4868 40.5661C62.3968 40.5721 62.3158 40.5421 62.2438 40.4761C62.1718 40.4041 62.1358 40.3171 62.1358 40.2151V39.7201L60.6958 39.8281ZM61.6318 37.8121C61.9078 37.7641 62.1598 37.7341 62.3878 37.7221C62.6218 37.7041 62.8738 37.6981 63.1438 37.7041C63.1558 37.5301 63.1648 37.3771 63.1708 37.2451C63.1768 37.1071 63.1858 36.9391 63.1978 36.7411C63.1978 36.6451 63.1438 36.5911 63.0358 36.5791C62.7718 36.5791 62.5258 36.5851 62.2978 36.5971C62.0698 36.6031 61.8238 36.6271 61.5598 36.6691C61.5718 36.8791 61.5838 37.0681 61.5958 37.2361C61.6078 37.3981 61.6198 37.5901 61.6318 37.8121ZM69.0383 36.6151C69.0143 36.5191 69.0203 36.4411 69.0563 36.3811C69.0923 36.3271 69.1673 36.3031 69.2813 36.3091C69.4913 36.3271 69.6653 36.4171 69.8033 36.5791C69.9473 36.7411 70.0673 36.9361 70.1633 37.1641C70.2533 37.3861 70.3223 37.6141 70.3703 37.8481C70.4183 38.0761 70.4543 38.2621 70.4783 38.4061C70.5203 38.7001 70.5443 38.9971 70.5503 39.2971C70.5563 39.5971 70.5443 39.8821 70.5143 40.1521C70.4903 40.3621 70.4483 40.5361 70.3883 40.6741C70.3283 40.8061 70.2563 40.9111 70.1723 40.9891C70.0883 41.0611 69.9983 41.1091 69.9023 41.1331C69.8063 41.1571 69.7103 41.1631 69.6143 41.1511C69.3503 41.1091 69.1703 40.9741 69.0743 40.7461C68.9783 40.5181 68.9693 40.2481 69.0473 39.9361C69.0773 39.7981 69.1043 39.6631 69.1283 39.5311C69.1523 39.3991 69.1733 39.2671 69.1913 39.1351C69.0413 39.0931 68.8943 39.0811 68.7503 39.0991C68.6123 39.1171 68.4653 39.1531 68.3093 39.2071C68.2133 39.2371 68.1233 39.2371 68.0393 39.2071C67.9553 39.1771 67.9013 39.1231 67.8773 39.0451C67.8533 38.9611 67.8653 38.8771 67.9133 38.7931C67.9613 38.7031 68.0483 38.6311 68.1743 38.5771C68.3423 38.5051 68.5193 38.4601 68.7053 38.4421C68.8913 38.4181 69.0713 38.4211 69.2453 38.4511V38.3611C69.2453 38.0671 69.2273 37.7761 69.1913 37.4881C69.1553 37.2001 69.1043 36.9091 69.0383 36.6151ZM65.4833 37.9201C65.3873 37.9621 65.3003 37.9711 65.2223 37.9471C65.1443 37.9231 65.0813 37.8781 65.0333 37.8121C64.9913 37.7401 64.9763 37.6621 64.9883 37.5781C65.0003 37.4881 65.0513 37.4101 65.1413 37.3441C65.2493 37.2481 65.4023 37.1641 65.6003 37.0921C65.8043 37.0201 66.0023 36.9781 66.1943 36.9661C66.5303 36.9541 66.8003 36.9781 67.0043 37.0381C67.2083 37.0921 67.3823 37.2121 67.5263 37.3981C67.6463 37.5541 67.7183 37.7491 67.7423 37.9831C67.7663 38.2111 67.7543 38.4721 67.7063 38.7661C67.6763 38.9401 67.6283 39.1171 67.5623 39.2971C67.5023 39.4711 67.4273 39.6451 67.3373 39.8191C67.2473 39.9871 67.1453 40.1491 67.0313 40.3051C66.9173 40.4551 66.8003 40.5871 66.6803 40.7011C66.5243 40.8511 66.3443 40.9441 66.1403 40.9801C65.9423 41.0161 65.7773 40.9771 65.6453 40.8631C65.5253 40.7551 65.4593 40.6231 65.4473 40.4671C65.4413 40.3111 65.5223 40.1491 65.6903 39.9811C65.8823 39.7891 66.0443 39.6001 66.1763 39.4141C66.3143 39.2221 66.4373 39.0121 66.5453 38.7841C66.5693 38.7361 66.5933 38.6791 66.6173 38.6131C66.6473 38.5411 66.6713 38.4661 66.6893 38.3881C66.7073 38.3101 66.7163 38.2321 66.7163 38.1541C66.7163 38.0701 66.6983 37.9921 66.6623 37.9201C66.6203 37.8361 66.5423 37.7761 66.4283 37.7401C66.3203 37.6981 66.2123 37.6831 66.1043 37.6951C65.9843 37.7131 65.8763 37.7431 65.7803 37.7851C65.6843 37.8211 65.5853 37.8661 65.4833 37.9201ZM68.9033 42.2131C69.0713 42.2071 69.2183 42.1741 69.3443 42.1141C69.4763 42.0541 69.6113 41.9791 69.7493 41.8891C69.9113 41.7811 70.0583 41.7451 70.1903 41.7811C70.3283 41.8171 70.4303 41.8861 70.4963 41.9881C70.5623 42.1021 70.5713 42.2341 70.5233 42.3841C70.4813 42.5341 70.3613 42.6691 70.1633 42.7891C69.8333 42.9811 69.4373 43.0771 68.9753 43.0771C68.7173 43.0771 68.4893 43.0381 68.2913 42.9601C68.0933 42.8821 67.9283 42.7741 67.7963 42.6361C67.6703 42.4981 67.5803 42.3301 67.5263 42.1321C67.4783 41.9341 67.4723 41.7181 67.5083 41.4841C67.5203 41.4001 67.5353 41.3251 67.5533 41.2591C67.5773 41.1871 67.6103 41.1181 67.6523 41.0521C67.7003 40.9681 67.7603 40.9111 67.8323 40.8811C67.9043 40.8511 67.9733 40.8481 68.0393 40.8721C68.0993 40.8961 68.1443 40.9321 68.1743 40.9801C68.2103 41.0281 68.2193 41.0881 68.2013 41.1601C68.1773 41.2801 68.1593 41.4001 68.1473 41.5201C68.1353 41.7541 68.1953 41.9311 68.3273 42.0511C68.4593 42.1711 68.6513 42.2251 68.9033 42.2131Z" fill="white"/>
<path d="M15.2137 14.1318L17.2071 22.6187C17.4759 23.7634 19.3135 23.8243 19.6221 22.6988C19.6528 22.5865 19.6629 22.4703 19.652 22.3544L19.0038 15.4902C18.9888 15.3307 18.9898 15.1706 19.007 15.0118L19.0182 14.9075C19.1675 13.5254 20.5341 12.5192 22.1112 12.6303C22.371 12.6486 22.6275 12.6971 22.8742 12.7747L29.6727 14.9118C29.831 14.9615 29.9981 14.9842 30.1648 14.9785C31.522 14.9318 31.8567 13.3112 30.6149 12.799L21.9038 9.20619C18.1782 7.84672 14.3337 10.6766 15.2137 14.1318Z" fill="white" stroke="white"/>
<path d="M16.0778 20.6284L20.0971 20.2446" stroke="#FEB3B3"/>
<path d="M15.6312 18.639L20.5437 18.2658" stroke="#FEB3B3"/>
<path d="M27.7019 15.0794L29.91 11.1111" stroke="#FEB3B3"/>
<path d="M25.0161 14.2857L27.2364 10.7143" stroke="#FEB3B3"/>
</svg>
