<svg width="152" height="93" viewBox="0 0 152 93" fill="none" xmlns="http://www.w3.org/2000/svg">
<path d="M44.2183 54.4234L55.3791 53.2342M63.5637 51.9706L55.3791 53.2342M55.3791 53.2342V62.9118" stroke="#535353" stroke-width="3.5"/>
<path d="M68.3999 39.6618V43.0809M68.3999 43.0809V51.6544C68.3999 52.2067 68.8476 52.6544 69.3999 52.6544H74.9999C75.5522 52.6544 75.9999 52.2067 75.9999 51.6544V41.2082C75.9999 40.4826 75.2514 39.9985 74.5896 40.2962L68.3999 43.0809Z" stroke="#535353" stroke-width="3.5"/>
<path d="M78.7637 47.1838H83.6M83.6 47.1838V35.5588M83.6 47.1838V59.4927" stroke="#535353" stroke-width="3.5"/>
<path d="M89.8181 34.875V47.8676V61.5441" stroke="#535353" stroke-width="3.5"/>
<path d="M97.2454 38.9265H106.645C107.75 38.9265 108.645 39.8219 108.645 40.9265V42.8727C108.645 43.9773 107.75 44.8727 106.645 44.8727H99.2454C98.1408 44.8727 97.2454 45.7682 97.2454 46.8727V50.6029C97.2454 51.7075 98.1408 52.6029 99.2454 52.6029H108.645" stroke="#535353" stroke-width="3.5"/>
<path d="M47.6726 35.5588V43.0809M60.7999 34.1912V40.0037M60.7999 40.0037V41.5663C60.7999 44.8 58.4446 47.5519 55.2497 48.0512L53.7532 48.2851C50.5587 48.7843 47.6726 46.3142 47.6726 43.0809V43.0809M60.7999 40.0037L47.6726 43.0809" stroke="#535353" stroke-width="3.5"/>
<path d="M117.455 44.3971H124.364" stroke="#535353" stroke-width="3.5"/>
<path d="M113.309 55.3382V37.5489C113.309 37.1799 113.408 36.8175 113.595 36.4993V36.4993C114.396 35.1351 116.368 35.1351 117.169 36.4993V36.4993C117.356 36.8175 117.455 37.1799 117.455 37.5489V55.3382" stroke="#FEB3B3" stroke-width="2"/>
<path d="M114.606 54.6544H115.086C119.447 54.6544 122.982 58.1896 122.982 62.5505V63.1701C122.982 67.531 119.447 71.0662 115.086 71.0662H114.606C110.074 71.0662 106.4 67.3923 106.4 62.8603C106.4 58.3283 110.074 54.6544 114.606 54.6544Z" stroke="#FEB3B3" stroke-width="2"/>
<path d="M118.836 59.4412L119.13 59.7055C121.125 61.5001 120.983 64.6698 118.836 66.2794V66.2794" stroke="#FEB3B3" stroke-width="1.5"/>
<path d="M116.771 66.2794H116.757C116.379 66.2794 116.073 66.5856 116.073 66.9632C116.073 67.3409 116.379 67.6471 116.757 67.6471H116.771C117.148 67.6471 117.455 67.3409 117.455 66.9632C117.455 66.5856 117.148 66.2794 116.771 66.2794Z" stroke="#FEB3B3" stroke-width="1.5"/>
<path d="M58.7781 69.3191C58.6581 69.3311 58.5621 69.3131 58.4901 69.2651C58.4181 69.2171 58.3791 69.1481 58.3731 69.0581C58.3611 68.8721 58.4901 68.7491 58.7601 68.6891C59.1501 68.6051 59.5641 68.5481 60.0021 68.5181C60.4401 68.4821 60.8481 68.4791 61.2261 68.5091C61.4061 68.5211 61.5411 68.5661 61.6311 68.6441C61.7211 68.7221 61.7601 68.8211 61.7481 68.9411C61.7361 69.0551 61.6821 69.1361 61.5861 69.1841C61.4961 69.2261 61.3701 69.2471 61.2081 69.2471C61.0701 69.2471 60.9261 69.2471 60.7761 69.2471C60.6321 69.2411 60.4911 69.2381 60.3531 69.2381C60.2151 69.2381 60.0831 69.2411 59.9571 69.2471C59.8311 69.2531 59.7231 69.2621 59.6331 69.2741C59.5671 69.4001 59.5341 69.5321 59.5341 69.6701C59.5401 69.8081 59.5791 69.9221 59.6511 70.0121C59.7051 70.0781 59.7801 70.1351 59.8761 70.1831C59.9781 70.2311 60.0891 70.2611 60.2091 70.2731C60.3711 70.2851 60.5271 70.2761 60.6771 70.2461C60.8331 70.2161 60.9771 70.1801 61.1091 70.1381C61.5411 70.0061 61.8051 70.0631 61.9011 70.3091C61.9611 70.4591 61.9401 70.5911 61.8381 70.7051C61.7361 70.8191 61.5441 70.9091 61.2621 70.9751C61.1181 71.0051 60.9801 71.0291 60.8481 71.0471C60.7161 71.0591 60.5991 71.0651 60.4971 71.0651C60.2691 71.0651 60.0681 71.0531 59.8941 71.0291C59.7201 70.9991 59.5641 70.9601 59.4261 70.9121C59.2641 70.8521 59.1261 70.7681 59.0121 70.6601C58.9041 70.5521 58.8231 70.4291 58.7691 70.2911C58.7151 70.1471 58.6881 69.9941 58.6881 69.8321C58.6941 69.6641 58.7241 69.4931 58.7781 69.3191ZM59.5341 73.7831C59.4501 73.8011 59.3721 73.8011 59.3001 73.7831C59.2281 73.7651 59.1771 73.7231 59.1471 73.6571C59.1231 73.6031 59.1231 73.5401 59.1471 73.4681C59.1771 73.3901 59.2461 73.3271 59.3541 73.2791C59.5281 73.2071 59.7261 73.1591 59.9481 73.1351C60.1701 73.1051 60.3801 73.0901 60.5781 73.0901C60.9321 73.0901 61.2051 73.1681 61.3971 73.3241C61.5951 73.4741 61.6941 73.6751 61.6941 73.9271C61.6941 74.1791 61.6191 74.3681 61.4691 74.4941C61.3191 74.6201 61.1301 74.6831 60.9021 74.6831C60.7641 74.6831 60.6051 74.6831 60.4251 74.6831C60.2451 74.6891 60.0831 74.6981 59.9391 74.7101C59.9271 74.7821 59.9211 74.8391 59.9211 74.8811C59.9271 74.9291 59.9451 74.9801 59.9751 75.0341C60.0111 75.1061 60.0711 75.1631 60.1551 75.2051C60.2451 75.2471 60.3501 75.2621 60.4701 75.2501C60.5721 75.2381 60.6681 75.2141 60.7581 75.1781C60.8541 75.1481 60.9651 75.1001 61.0911 75.0341C61.1751 74.9921 61.2711 74.9831 61.3791 75.0071C61.4871 75.0311 61.5651 75.0941 61.6131 75.1961C61.6611 75.2981 61.6641 75.3971 61.6221 75.4931C61.5801 75.5891 61.5171 75.6701 61.4331 75.7361C61.3131 75.8321 61.1631 75.8981 60.9831 75.9341C60.8031 75.9761 60.6291 75.9911 60.4611 75.9791C60.1791 75.9611 59.9451 75.8861 59.7591 75.7541C59.5791 75.6281 59.4591 75.4451 59.3991 75.2051C59.3751 75.1211 59.3631 75.0401 59.3631 74.9621C59.3631 74.8901 59.3691 74.8121 59.3811 74.7281C59.2191 74.7161 59.1381 74.6351 59.1381 74.4851C59.1381 74.4191 59.1591 74.3561 59.2011 74.2961C59.2491 74.2361 59.3151 74.2001 59.3991 74.1881C59.4771 74.1761 59.5731 74.1671 59.6871 74.1611C59.8071 74.1491 59.9271 74.1401 60.0471 74.1341C60.1731 74.1281 60.2961 74.1251 60.4161 74.1251C60.5361 74.1191 60.6381 74.1161 60.7221 74.1161C60.8781 74.1161 60.9621 74.0501 60.9741 73.9181C60.9801 73.8701 60.9621 73.8251 60.9201 73.7831C60.8781 73.7351 60.8151 73.7051 60.7311 73.6931C60.5391 73.6631 60.3411 73.6601 60.1371 73.6841C59.9391 73.7021 59.7381 73.7351 59.5341 73.7831ZM61.7391 71.8751C61.9251 71.8631 62.0781 71.8811 62.1981 71.9291C62.3241 71.9771 62.3901 72.0761 62.3961 72.2261C62.4021 72.3521 62.3691 72.4421 62.2971 72.4961C62.2251 72.5441 62.0841 72.5831 61.8741 72.6131C61.3281 72.6611 60.8061 72.7061 60.3081 72.7481C59.8101 72.7901 59.3121 72.8321 58.8141 72.8741C58.6401 72.8921 58.5051 72.8651 58.4091 72.7931C58.3191 72.7151 58.2681 72.6281 58.2561 72.5321C58.2441 72.4361 58.2711 72.3491 58.3371 72.2711C58.4091 72.1871 58.5141 72.1361 58.6521 72.1181C58.7901 72.1001 58.9701 72.0821 59.1921 72.0641C59.4141 72.0461 59.6601 72.0251 59.9301 72.0011C59.9301 71.9111 59.9301 71.8211 59.9301 71.7311C59.9361 71.6411 59.9421 71.5691 59.9481 71.5151C59.9541 71.4071 59.9931 71.3231 60.0651 71.2631C60.1371 71.2031 60.2241 71.1731 60.3261 71.1731C60.4461 71.1731 60.5451 71.2061 60.6231 71.2721C60.7071 71.3321 60.7461 71.4311 60.7401 71.5691C60.7341 71.6351 60.7311 71.6981 60.7311 71.7581C60.7311 71.8181 60.7311 71.8811 60.7311 71.9471C60.9111 71.9351 61.0851 71.9231 61.2531 71.9111C61.4271 71.8991 61.5891 71.8871 61.7391 71.8751ZM68.6462 71.2901C68.6942 71.3081 68.7392 71.3291 68.7812 71.3531C68.8292 71.3711 68.8742 71.3951 68.9162 71.4251C68.9762 71.4731 69.0152 71.5301 69.0332 71.5961C69.0512 71.6621 69.0512 71.7221 69.0332 71.7761C69.0092 71.8421 68.9732 71.8901 68.9252 71.9201C68.8772 71.9501 68.8262 71.9651 68.7722 71.9651C68.7062 71.9651 68.6432 71.9531 68.5832 71.9291C68.5232 71.9051 68.4632 71.8871 68.4032 71.8751C68.2472 71.8331 68.1062 71.8211 67.9802 71.8391C67.8542 71.8511 67.7222 71.8901 67.5842 71.9561C67.5902 72.1001 67.5932 72.2591 67.5932 72.4331C67.5932 72.6071 67.5902 72.7841 67.5842 72.9641C67.5782 73.1441 67.5692 73.3181 67.5572 73.4861C67.5452 73.6541 67.5302 73.8041 67.5122 73.9361C67.4882 74.0921 67.4162 74.2151 67.2962 74.3051C67.1762 74.3891 67.0112 74.4281 66.8012 74.4221C66.6452 74.4161 66.5102 74.3711 66.3962 74.2871C66.2882 74.2031 66.2402 74.0771 66.2522 73.9091C66.2702 73.7171 66.2882 73.5101 66.3062 73.2881C66.3242 73.0661 66.3392 72.8471 66.3512 72.6311C66.3632 72.4151 66.3722 72.2111 66.3782 72.0191C66.3902 71.8211 66.3962 71.6501 66.3962 71.5061C66.3962 71.2121 66.3932 70.9121 66.3872 70.6061C66.3812 70.3001 66.3542 70.0121 66.3062 69.7421C66.3002 69.7061 66.2912 69.6611 66.2792 69.6071C66.2732 69.5471 66.2732 69.4931 66.2792 69.4451C66.2912 69.3671 66.3152 69.3251 66.3512 69.3191C66.3932 69.3071 66.4442 69.3071 66.5042 69.3191C66.6122 69.3371 66.6992 69.3701 66.7652 69.4181C66.8372 69.4661 66.9062 69.5231 66.9722 69.5891C67.1282 69.7631 67.2512 69.9971 67.3412 70.2911C67.4312 70.5791 67.4972 70.9211 67.5392 71.3171C67.7192 71.2331 67.9052 71.1911 68.0972 71.1911C68.2892 71.1911 68.4722 71.2241 68.6462 71.2901ZM62.8232 72.1451C62.8292 71.9171 62.8682 71.7161 62.9402 71.5421C63.0122 71.3681 63.1052 71.2241 63.2192 71.1101C63.3392 70.9961 63.4712 70.9121 63.6152 70.8581C63.7592 70.7981 63.9092 70.7681 64.0652 70.7681C64.2572 70.7681 64.4312 70.8101 64.5872 70.8941C64.7432 70.9721 64.8722 71.0801 64.9742 71.2181C65.0822 71.3561 65.1602 71.5181 65.2082 71.7041C65.2622 71.8841 65.2802 72.0791 65.2622 72.2891C65.2202 72.7091 65.0822 73.0301 64.8482 73.2521C64.6142 73.4681 64.3262 73.5701 63.9842 73.5581C63.6122 73.5461 63.3212 73.4141 63.1112 73.1621C62.9072 72.9101 62.8112 72.5711 62.8232 72.1451ZM63.5342 72.2081C63.5402 72.3821 63.5822 72.5261 63.6602 72.6401C63.7382 72.7541 63.8432 72.8141 63.9752 72.8201C64.1552 72.8261 64.2932 72.7721 64.3892 72.6581C64.4912 72.5441 64.5452 72.3941 64.5512 72.2081C64.5572 71.9861 64.5092 71.8181 64.4072 71.7041C64.3112 71.5901 64.1762 71.5391 64.0022 71.5511C63.8342 71.5631 63.7142 71.6351 63.6422 71.7671C63.5702 71.8931 63.5342 72.0401 63.5342 72.2081ZM74.5344 73.1891C74.5344 73.3391 74.5284 73.4891 74.5164 73.6391C74.5044 73.7831 74.4834 73.9301 74.4534 74.0801C74.4294 74.2061 74.3814 74.3081 74.3094 74.3861C74.2434 74.4581 74.1624 74.5151 74.0664 74.5571C73.9764 74.5931 73.8774 74.6171 73.7694 74.6291C73.6674 74.6351 73.5654 74.6291 73.4634 74.6111C73.2414 74.5631 73.1094 74.4641 73.0674 74.3141C73.0314 74.1581 73.0284 73.9841 73.0584 73.7921C73.1184 73.4561 73.1694 73.0991 73.2114 72.7211C73.2534 72.3431 73.2804 71.9741 73.2924 71.6141C73.3044 71.2241 73.2954 70.8641 73.2654 70.5341C73.2414 70.1981 73.1844 69.8651 73.0944 69.5351C73.0824 69.4991 73.0704 69.4601 73.0584 69.4181C73.0464 69.3761 73.0374 69.3341 73.0314 69.2921C73.0314 69.2501 73.0374 69.2141 73.0494 69.1841C73.0614 69.1541 73.0914 69.1361 73.1394 69.1301C73.2774 69.1121 73.4094 69.1331 73.5354 69.1931C73.6614 69.2471 73.7664 69.3251 73.8504 69.4271C73.9884 69.5891 74.0874 69.7541 74.1474 69.9221C74.2134 70.0841 74.2704 70.2641 74.3184 70.4621C74.3484 70.5881 74.3724 70.7141 74.3904 70.8401C74.4144 70.9601 74.4354 71.0801 74.4534 71.2001C74.8254 71.0681 75.1944 71.0771 75.5604 71.2271C75.6804 71.2751 75.7614 71.3441 75.8034 71.4341C75.8454 71.5181 75.8514 71.6021 75.8214 71.6861C75.7914 71.7821 75.7344 71.8451 75.6504 71.8751C75.5724 71.8991 75.4854 71.8961 75.3894 71.8661C75.2274 71.8181 75.0774 71.7911 74.9394 71.7851C74.8074 71.7791 74.6664 71.8121 74.5164 71.8841C74.5284 72.1001 74.5314 72.3161 74.5254 72.5321C74.5254 72.7481 74.5284 72.9671 74.5344 73.1891ZM72.0684 70.8041C72.0684 71.0081 72.0324 71.1941 71.9604 71.3621C71.8944 71.5301 71.8014 71.6741 71.6814 71.7941C71.5614 71.9141 71.4204 72.0071 71.2584 72.0731C71.1024 72.1331 70.9374 72.1631 70.7634 72.1631C70.5534 72.1631 70.3674 72.1241 70.2054 72.0461C70.0494 71.9681 69.9174 71.8661 69.8094 71.7401C69.7014 71.6081 69.6204 71.4551 69.5664 71.2811C69.5184 71.1071 69.4974 70.9211 69.5034 70.7231C69.5094 70.5311 69.5454 70.3541 69.6114 70.1921C69.6774 70.0301 69.7674 69.8891 69.8814 69.7691C69.9954 69.6491 70.1304 69.5591 70.2864 69.4991C70.4424 69.4331 70.6164 69.4031 70.8084 69.4091C71.0184 69.4151 71.2014 69.4571 71.3574 69.5351C71.5134 69.6071 71.6424 69.7091 71.7444 69.8411C71.8524 69.9671 71.9334 70.1141 71.9874 70.2821C72.0414 70.4441 72.0684 70.6181 72.0684 70.8041ZM69.6204 74.1071C69.4704 74.1191 69.3564 74.0921 69.2784 74.0261C69.2064 73.9541 69.1644 73.8761 69.1524 73.7921C69.1404 73.6961 69.1674 73.6061 69.2334 73.5221C69.3054 73.4381 69.4134 73.3901 69.5574 73.3781L70.4934 73.2881L70.5024 72.6581C70.5024 72.5501 70.5354 72.4691 70.6014 72.4151C70.6734 72.3611 70.7484 72.3341 70.8264 72.3341C70.9284 72.3341 71.0064 72.3641 71.0604 72.4241C71.1204 72.4781 71.1504 72.5561 71.1504 72.6581L71.1594 73.2251L72.2934 73.1261C72.4254 73.1141 72.5244 73.1441 72.5904 73.2161C72.6564 73.2881 72.6954 73.3691 72.7074 73.4591C72.7134 73.5491 72.6894 73.6331 72.6354 73.7111C72.5814 73.7891 72.4944 73.8341 72.3744 73.8461L69.6204 74.1071ZM70.2324 70.7861C70.2264 70.9901 70.2744 71.1461 70.3764 71.2541C70.4844 71.3561 70.6074 71.4131 70.7454 71.4251C70.9074 71.4371 71.0424 71.3891 71.1504 71.2811C71.2584 71.1671 71.3184 71.0231 71.3304 70.8491C71.3364 70.7711 71.3304 70.6931 71.3124 70.6151C71.3004 70.5311 71.2734 70.4561 71.2314 70.3901C71.1954 70.3241 71.1474 70.2701 71.0874 70.2281C71.0274 70.1861 70.9524 70.1591 70.8624 70.1471C70.7604 70.1351 70.6704 70.1471 70.5924 70.1831C70.5144 70.2131 70.4484 70.2581 70.3944 70.3181C70.3404 70.3781 70.2984 70.4501 70.2684 70.5341C70.2444 70.6181 70.2324 70.7021 70.2324 70.7861ZM82.2285 73.6751C82.1685 74.0651 81.9465 74.2511 81.5625 74.2331C81.3885 74.2211 81.2505 74.1491 81.1485 74.0171C81.0525 73.8851 81.0285 73.7171 81.0765 73.5131C81.1605 73.1651 81.2265 72.7961 81.2745 72.4061C81.3285 72.0161 81.3555 71.6291 81.3555 71.2451C81.3555 71.0111 81.3435 70.7771 81.3195 70.5431C81.2955 70.3091 81.2595 70.0931 81.2115 69.8951C81.1815 69.7811 81.1695 69.6911 81.1755 69.6251C81.1875 69.5531 81.2415 69.5141 81.3375 69.5081C81.4215 69.5021 81.4995 69.5231 81.5715 69.5711C81.6495 69.6131 81.7185 69.6701 81.7785 69.7421C81.8445 69.8081 81.8985 69.8801 81.9405 69.9581C81.9825 70.0361 82.0155 70.1051 82.0395 70.1651C82.1055 70.3211 82.1565 70.4981 82.1925 70.6961C82.2345 70.8941 82.2675 71.1041 82.2915 71.3261C82.4055 71.2961 82.5135 71.2781 82.6155 71.2721C82.7235 71.2601 82.8285 71.2601 82.9305 71.2721C82.9185 70.6601 82.8465 70.1081 82.7145 69.6161C82.6965 69.5561 82.6875 69.4991 82.6875 69.4451C82.6935 69.3911 82.7235 69.3581 82.7775 69.3461C82.8615 69.3281 82.9425 69.3371 83.0205 69.3731C83.1045 69.4031 83.1795 69.4481 83.2455 69.5081C83.4315 69.6761 83.5755 69.8981 83.6775 70.1741C83.7675 70.4261 83.8335 70.6901 83.8755 70.9661C83.9175 71.2361 83.9475 71.5151 83.9655 71.8031C83.9835 72.1631 83.9835 72.5201 83.9655 72.8741C83.9475 73.2221 83.9205 73.5581 83.8845 73.8821C83.8605 74.0561 83.7825 74.1881 83.6505 74.2781C83.5245 74.3621 83.3775 74.3981 83.2095 74.3861C83.0355 74.3741 82.9035 74.3051 82.8135 74.1791C82.7235 74.0531 82.6935 73.8671 82.7235 73.6211C82.7595 73.3451 82.7955 73.0571 82.8315 72.7571C82.8735 72.4571 82.9035 72.1601 82.9215 71.8661C82.8195 71.8541 82.7205 71.8541 82.6245 71.8661C82.5345 71.8781 82.4385 71.8991 82.3365 71.9291V72.1451C82.3365 72.4151 82.3275 72.6821 82.3095 72.9461C82.2915 73.2041 82.2645 73.4471 82.2285 73.6751ZM79.7175 72.6851C79.8015 72.6911 79.8825 72.6911 79.9605 72.6851C80.0385 72.6731 80.1135 72.6611 80.1855 72.6491C80.4975 72.5711 80.6835 72.6311 80.7435 72.8291C80.7795 72.9371 80.7795 73.0451 80.7435 73.1531C80.7135 73.2611 80.6295 73.3481 80.4915 73.4141C80.3955 73.4621 80.2815 73.4981 80.1495 73.5221C80.0175 73.5461 79.8945 73.5581 79.7805 73.5581C79.4925 73.5581 79.2495 73.5191 79.0515 73.4411C78.8535 73.3571 78.6945 73.2401 78.5745 73.0901C78.4425 72.9281 78.3525 72.7301 78.3045 72.4961C78.2625 72.2621 78.2625 72.0011 78.3045 71.7131C78.3345 71.5331 78.3765 71.3471 78.4305 71.1551C78.4845 70.9631 78.5475 70.8041 78.6195 70.6781C78.6675 70.5941 78.7275 70.5401 78.7995 70.5161C78.8775 70.4921 78.9465 70.4921 79.0065 70.5161C79.0665 70.5401 79.1115 70.5821 79.1415 70.6421C79.1715 70.7021 79.1745 70.7741 79.1505 70.8581C79.1205 70.9781 79.0905 71.1251 79.0605 71.2991C79.0305 71.4731 79.0155 71.6381 79.0155 71.7941C79.0155 72.1001 79.0725 72.3221 79.1865 72.4601C79.3005 72.5981 79.4775 72.6731 79.7175 72.6851ZM88.2031 68.3651C88.5151 68.3231 88.8241 68.2901 89.1301 68.2661C89.4361 68.2421 89.7331 68.2361 90.0211 68.2481C90.2731 68.2541 90.4711 68.3141 90.6151 68.4281C90.7591 68.5361 90.8251 68.7041 90.8131 68.9321C90.8011 69.1241 90.7891 69.3191 90.7771 69.5171C90.7711 69.7091 90.7591 69.8921 90.7411 70.0661C90.7111 70.3361 90.6421 70.5281 90.5341 70.6421C90.4321 70.7561 90.2461 70.8041 89.9761 70.7861C89.8201 70.7801 89.6791 70.7771 89.5531 70.7771C89.4271 70.7711 89.3011 70.7741 89.1751 70.7861C89.0551 70.7921 88.9321 70.8041 88.8061 70.8221C88.6801 70.8341 88.5451 70.8491 88.4011 70.8671C88.1311 70.9031 87.9361 70.8731 87.8161 70.7771C87.6961 70.6751 87.6241 70.4801 87.6001 70.1921C87.5761 69.8861 87.5521 69.5981 87.5281 69.3281C87.5101 69.0581 87.4951 68.7881 87.4831 68.5181C87.4711 68.3801 87.5011 68.2751 87.5731 68.2031C87.6451 68.1311 87.7321 68.0921 87.8341 68.0861C87.9421 68.0741 88.0231 68.0951 88.0771 68.1491C88.1311 68.2031 88.1731 68.2751 88.2031 68.3651ZM88.3111 73.7741C88.2271 73.7921 88.1491 73.7921 88.0771 73.7741C88.0051 73.7561 87.9541 73.7141 87.9241 73.6481C87.9001 73.5941 87.9001 73.5311 87.9241 73.4591C87.9541 73.3811 88.0231 73.3181 88.1311 73.2701C88.3051 73.1981 88.5031 73.1501 88.7251 73.1261C88.9471 73.0961 89.1571 73.0811 89.3551 73.0811C89.7091 73.0811 89.9821 73.1591 90.1741 73.3151C90.3721 73.4651 90.4711 73.6661 90.4711 73.9181C90.4711 74.1701 90.3961 74.3591 90.2461 74.4851C90.0961 74.6111 89.9071 74.6741 89.6791 74.6741C89.5411 74.6741 89.3821 74.6741 89.2021 74.6741C89.0221 74.6801 88.8601 74.6891 88.7161 74.7011C88.7041 74.7731 88.6981 74.8301 88.6981 74.8721C88.7041 74.9201 88.7221 74.9711 88.7521 75.0251C88.7881 75.0971 88.8481 75.1541 88.9321 75.1961C89.0221 75.2381 89.1271 75.2531 89.2471 75.2411C89.3491 75.2291 89.4451 75.2051 89.5351 75.1691C89.6311 75.1391 89.7421 75.0911 89.8681 75.0251C89.9521 74.9831 90.0481 74.9741 90.1561 74.9981C90.2641 75.0221 90.3421 75.0851 90.3901 75.1871C90.4381 75.2891 90.4411 75.3881 90.3991 75.4841C90.3571 75.5801 90.2941 75.6611 90.2101 75.7271C90.0901 75.8231 89.9401 75.8891 89.7601 75.9251C89.5801 75.9671 89.4061 75.9821 89.2381 75.9701C88.9561 75.9521 88.7221 75.8771 88.5361 75.7451C88.3561 75.6191 88.2361 75.4361 88.1761 75.1961C88.1521 75.1121 88.1401 75.0311 88.1401 74.9531C88.1401 74.8811 88.1461 74.8031 88.1581 74.7191C87.9961 74.7071 87.9151 74.6261 87.9151 74.4761C87.9151 74.4101 87.9361 74.3471 87.9781 74.2871C88.0261 74.2271 88.0921 74.1911 88.1761 74.1791C88.2541 74.1671 88.3501 74.1581 88.4641 74.1521C88.5841 74.1401 88.7041 74.1311 88.8241 74.1251C88.9501 74.1191 89.0731 74.1161 89.1931 74.1161C89.3131 74.1101 89.4151 74.1071 89.4991 74.1071C89.6551 74.1071 89.7391 74.0411 89.7511 73.9091C89.7571 73.8611 89.7391 73.8161 89.6971 73.7741C89.6551 73.7261 89.5921 73.6961 89.5081 73.6841C89.3161 73.6541 89.1181 73.6511 88.9141 73.6751C88.7161 73.6931 88.5151 73.7261 88.3111 73.7741ZM87.4291 72.1811C87.2731 72.1931 87.1561 72.1661 87.0781 72.1001C87.0061 72.0341 86.9671 71.9561 86.9611 71.8661C86.9551 71.7761 86.9821 71.6861 87.0421 71.5961C87.1021 71.5061 87.1921 71.4551 87.3121 71.4431C87.6181 71.4131 87.9331 71.3861 88.2571 71.3621C88.5811 71.3381 88.8961 71.3141 89.2021 71.2901C89.5081 71.2661 89.7961 71.2451 90.0661 71.2271C90.3421 71.2091 90.5791 71.1941 90.7771 71.1821C90.9331 71.1701 91.0561 71.2031 91.1461 71.2811C91.2361 71.3531 91.2871 71.4341 91.2991 71.5241C91.3111 71.6141 91.2781 71.7011 91.2001 71.7851C91.1281 71.8691 91.0051 71.9171 90.8311 71.9291L89.6161 72.0101C89.6161 72.0941 89.6161 72.1781 89.6161 72.2621C89.6161 72.3401 89.6101 72.4301 89.5981 72.5321C89.5861 72.6461 89.5531 72.7391 89.4991 72.8111C89.4511 72.8771 89.3581 72.9131 89.2201 72.9191C89.1301 72.9251 89.0491 72.8951 88.9771 72.8291C88.9051 72.7571 88.8691 72.6701 88.8691 72.5681V72.0731L87.4291 72.1811ZM88.3651 70.1651C88.6411 70.1171 88.8931 70.0871 89.1211 70.0751C89.3551 70.0571 89.6071 70.0511 89.8771 70.0571C89.8891 69.8831 89.8981 69.7301 89.9041 69.5981C89.9101 69.4601 89.9191 69.2921 89.9311 69.0941C89.9311 68.9981 89.8771 68.9441 89.7691 68.9321C89.5051 68.9321 89.2591 68.9381 89.0311 68.9501C88.8031 68.9561 88.5571 68.9801 88.2931 69.0221C88.3051 69.2321 88.3171 69.4211 88.3291 69.5891C88.3411 69.7511 88.3531 69.9431 88.3651 70.1651ZM95.7716 68.9681C95.7476 68.8721 95.7536 68.7941 95.7896 68.7341C95.8256 68.6801 95.9006 68.6561 96.0146 68.6621C96.2246 68.6801 96.3986 68.7701 96.5366 68.9321C96.6806 69.0941 96.8006 69.2891 96.8966 69.5171C96.9866 69.7391 97.0556 69.9671 97.1036 70.2011C97.1516 70.4291 97.1876 70.6151 97.2116 70.7591C97.2536 71.0531 97.2776 71.3501 97.2836 71.6501C97.2896 71.9501 97.2776 72.2351 97.2476 72.5051C97.2236 72.7151 97.1816 72.8891 97.1216 73.0271C97.0616 73.1591 96.9896 73.2641 96.9056 73.3421C96.8216 73.4141 96.7316 73.4621 96.6356 73.4861C96.5396 73.5101 96.4436 73.5161 96.3476 73.5041C96.0836 73.4621 95.9036 73.3271 95.8076 73.0991C95.7116 72.8711 95.7026 72.6011 95.7806 72.2891C95.8106 72.1511 95.8376 72.0161 95.8616 71.8841C95.8856 71.7521 95.9066 71.6201 95.9246 71.4881C95.7746 71.4461 95.6276 71.4341 95.4836 71.4521C95.3456 71.4701 95.1986 71.5061 95.0426 71.5601C94.9466 71.5901 94.8566 71.5901 94.7726 71.5601C94.6886 71.5301 94.6346 71.4761 94.6106 71.3981C94.5866 71.3141 94.5986 71.2301 94.6466 71.1461C94.6946 71.0561 94.7816 70.9841 94.9076 70.9301C95.0756 70.8581 95.2526 70.8131 95.4386 70.7951C95.6246 70.7711 95.8046 70.7741 95.9786 70.8041V70.7141C95.9786 70.4201 95.9606 70.1291 95.9246 69.8411C95.8886 69.5531 95.8376 69.2621 95.7716 68.9681ZM92.2166 70.2731C92.1206 70.3151 92.0336 70.3241 91.9556 70.3001C91.8776 70.2761 91.8146 70.2311 91.7666 70.1651C91.7246 70.0931 91.7096 70.0151 91.7216 69.9311C91.7336 69.8411 91.7846 69.7631 91.8746 69.6971C91.9826 69.6011 92.1356 69.5171 92.3336 69.4451C92.5376 69.3731 92.7356 69.3311 92.9276 69.3191C93.2636 69.3071 93.5336 69.3311 93.7376 69.3911C93.9416 69.4451 94.1156 69.5651 94.2596 69.7511C94.3796 69.9071 94.4516 70.1021 94.4756 70.3361C94.4996 70.5641 94.4876 70.8251 94.4396 71.1191C94.4096 71.2931 94.3616 71.4701 94.2956 71.6501C94.2356 71.8241 94.1606 71.9981 94.0706 72.1721C93.9806 72.3401 93.8786 72.5021 93.7646 72.6581C93.6506 72.8081 93.5336 72.9401 93.4136 73.0541C93.2576 73.2041 93.0776 73.2971 92.8736 73.3331C92.6756 73.3691 92.5106 73.3301 92.3786 73.2161C92.2586 73.1081 92.1926 72.9761 92.1806 72.8201C92.1746 72.6641 92.2556 72.5021 92.4236 72.3341C92.6156 72.1421 92.7776 71.9531 92.9096 71.7671C93.0476 71.5751 93.1706 71.3651 93.2786 71.1371C93.3026 71.0891 93.3266 71.0321 93.3506 70.9661C93.3806 70.8941 93.4046 70.8191 93.4226 70.7411C93.4406 70.6631 93.4496 70.5851 93.4496 70.5071C93.4496 70.4231 93.4316 70.3451 93.3956 70.2731C93.3536 70.1891 93.2756 70.1291 93.1616 70.0931C93.0536 70.0511 92.9456 70.0361 92.8376 70.0481C92.7176 70.0661 92.6096 70.0961 92.5136 70.1381C92.4176 70.1741 92.3186 70.2191 92.2166 70.2731ZM95.6366 74.5661C95.8046 74.5601 95.9516 74.5271 96.0776 74.4671C96.2096 74.4071 96.3446 74.3321 96.4826 74.2421C96.6446 74.1341 96.7916 74.0981 96.9236 74.1341C97.0616 74.1701 97.1636 74.2391 97.2296 74.3411C97.2956 74.4551 97.3046 74.5871 97.2566 74.7371C97.2146 74.8871 97.0946 75.0221 96.8966 75.1421C96.5666 75.3341 96.1706 75.4301 95.7086 75.4301C95.4506 75.4301 95.2226 75.3911 95.0246 75.3131C94.8266 75.2351 94.6616 75.1271 94.5296 74.9891C94.4036 74.8511 94.3136 74.6831 94.2596 74.4851C94.2116 74.2871 94.2056 74.0711 94.2416 73.8371C94.2536 73.7531 94.2686 73.6781 94.2866 73.6121C94.3106 73.5401 94.3436 73.4711 94.3856 73.4051C94.4336 73.3211 94.4936 73.2641 94.5656 73.2341C94.6376 73.2041 94.7066 73.2011 94.7726 73.2251C94.8326 73.2491 94.8776 73.2851 94.9076 73.3331C94.9436 73.3811 94.9526 73.4411 94.9346 73.5131C94.9106 73.6331 94.8926 73.7531 94.8806 73.8731C94.8686 74.1071 94.9286 74.2841 95.0606 74.4041C95.1926 74.5241 95.3846 74.5781 95.6366 74.5661Z" fill="#646464"/>
<g filter="url(#filter0_d)">
<path d="M25.1218 26.3602L28.2573 42.0991C28.6801 44.2214 31.7172 44.3034 32.2487 42.2069C32.3017 41.9979 32.3206 41.7817 32.3047 41.5665L31.363 28.8219C31.3411 28.5258 31.3458 28.2284 31.3772 27.9332L31.3978 27.7393C31.6707 25.1686 33.9498 23.2762 36.5554 23.4565C36.9844 23.4862 37.4076 23.5722 37.8138 23.7122L49.0149 27.5716C49.2758 27.6615 49.5516 27.7008 49.8272 27.6875C52.0721 27.5785 52.6571 24.5618 50.6139 23.6307L36.2771 17.0973C30.1435 14.6328 23.7323 19.9552 25.1218 26.3602Z" fill="#FEB3B3" stroke="white"/>
<line y1="-0.5" x2="4.10065" y2="-0.5" transform="matrix(0.994728 -0.140065 -0.0788498 -0.992058 27.6638 37.4451)" stroke="white"/>
<line y1="-0.5" x2="5.01508" y2="-0.5" transform="matrix(0.994873 -0.139061 -0.00583686 -0.994981 26.4575 34.2271)" stroke="white"/>
<line y1="-0.5" x2="4.76835" y2="-0.5" transform="matrix(0.60246 -0.795333 -0.823849 -0.571272 45.1399 25.7446)" stroke="white"/>
<line y1="-0.5" x2="4.76836" y2="-0.5" transform="matrix(0.602461 -0.795332 -0.82385 -0.571271 41.2542 24.7517)" stroke="white"/>
</g>
<defs>
<filter id="filter0_d" x="20.427" y="15.9843" width="35.9453" height="36.2491" filterUnits="userSpaceOnUse" color-interpolation-filters="sRGB">
<feFlood flood-opacity="0" result="BackgroundImageFix"/>
<feColorMatrix in="SourceAlpha" type="matrix" values="0 0 0 0 0 0 0 0 0 0 0 0 0 0 0 0 0 0 127 0"/>
<feOffset dy="4"/>
<feGaussianBlur stdDeviation="2"/>
<feColorMatrix type="matrix" values="0 0 0 0 0 0 0 0 0 0 0 0 0 0 0 0 0 0 0.25 0"/>
<feBlend mode="normal" in2="BackgroundImageFix" result="effect1_dropShadow"/>
<feBlend mode="normal" in="SourceGraphic" in2="effect1_dropShadow" result="shape"/>
</filter>
</defs>
</svg>
