<svg width="18" height="18" viewBox="0 0 18 18" fill="none" xmlns="http://www.w3.org/2000/svg">
<path d="M2.60001 11.6667L9.00001 17L15.4 11.6667" stroke="white"/>
<path d="M15.8164 11.4905C15.763 11.5263 15.1877 11.9955 15.4949 11.7959C16.0755 11.4185 15.5195 11.8717 15.2956 12.0209" stroke="white" stroke-width="0.5" stroke-linecap="round"/>
<path d="M2.3912 11.7798C2.48789 11.8384 2.57692 11.8813 2.68054 11.9245" stroke="white" stroke-width="0.5" stroke-linecap="round"/>
<path d="M2.6 11.6667L1.86377 10.2231C1.30494 9.12734 1.13951 7.87288 1.39518 6.66973V6.66973C1.65671 5.43899 2.34241 4.33929 3.33244 3.56279L3.92915 3.09478C4.6372 2.53945 5.43993 2.11688 6.29852 1.84752L6.4713 1.79332C8.11754 1.27685 9.88246 1.27685 11.5287 1.79332L11.7015 1.84752C12.5601 2.11688 13.3628 2.53945 14.0709 3.09478L14.6676 3.56279C15.6576 4.33929 16.3433 5.43899 16.6048 6.66973V6.66973C16.8605 7.87288 16.6951 9.12734 16.1362 10.2231L15.4 11.6667" stroke="white"/>
<path d="M11.7 7.33333C11.7 8.44846 10.5804 9.5 8.99999 9.5C7.41959 9.5 6.29999 8.44846 6.29999 7.33333C6.29999 6.2182 7.41959 5.16666 8.99999 5.16666C10.5804 5.16666 11.7 6.2182 11.7 7.33333Z" stroke="white"/>
</svg>
